<svg width="594" height="594" viewBox="0 0 594 594" fill="none" xmlns="http://www.w3.org/2000/svg">
<path d="M565.242 329.129C549.211 377.718 514.674 430.97 463.85 448.306C387.057 474.506 380.196 537.488 240.82 537.057C219.089 536.992 198.918 534.717 180.308 530.559C170.304 528.326 160.748 525.534 151.654 522.242C69.0888 492.459 23.883 421.629 17.4322 345.942C8.93203 246.394 76.6765 196.172 120.823 166.592C164.969 137.012 215.305 27.0586 352.325 26.4052C373.216 26.3149 394.141 28.3618 414.522 33.0497C461.048 43.731 508.918 69.4856 537.675 108.728C539.834 111.676 541.901 114.699 543.888 117.783C582.674 178.132 587.102 262.887 565.242 329.129Z" fill="#F8B09B"/>
<path opacity="0.7" d="M565.242 329.129C549.211 377.718 514.674 430.97 463.85 448.306C387.057 474.506 380.196 537.488 240.82 537.057C219.089 536.992 198.918 534.717 180.308 530.559C170.304 528.326 160.748 525.534 151.654 522.242C69.0888 492.459 23.883 421.629 17.4322 345.942C8.93203 246.394 76.6765 196.172 120.823 166.592C164.969 137.012 215.305 27.0586 352.325 26.4052C373.216 26.3149 394.141 28.3618 414.522 33.0497C461.048 43.731 508.918 69.4856 537.675 108.728C539.834 111.676 541.901 114.699 543.888 117.783C582.674 178.132 587.102 262.887 565.242 329.129Z" fill="white"/>
<path d="M571.766 547.315H18.8906" stroke="#2F243A" stroke-miterlimit="10"/>
<path d="M42.6172 502.783C42.6172 502.783 60.0749 197.498 584.251 169.745" stroke="#2F243A" stroke-miterlimit="10" stroke-linecap="round" stroke-linejoin="round" stroke-dasharray="5 5"/>
<path d="M522.476 149.153C542.428 165.425 552.903 190.807 558.159 215.418C569.062 266.484 563.956 321.469 538.629 367.637C511.891 416.381 464.67 451.49 413.942 472.351C306.403 516.574 169.513 487.579 108.447 382.646C107.785 381.505 107.131 380.358 106.486 379.208C100.567 368.624 95.0999 357.197 92.75 345.216" stroke="#2F243A" stroke-miterlimit="10" stroke-linecap="round" stroke-linejoin="round" stroke-dasharray="5 5"/>
<path d="M349.732 373.953H44.1133C39.2009 373.953 35.2188 369.971 35.2188 365.059V62.1328C35.2188 57.2205 39.2009 53.2383 44.1133 53.2383H349.732C354.645 53.2383 358.627 57.2205 358.627 62.1328V365.059C358.626 369.971 354.645 373.953 349.732 373.953Z" fill="#2F243A"/>
<path d="M357.52 366.486H51.9024C46.99 366.486 43.0078 362.504 43.0078 357.592V54.666C43.0078 49.7537 46.99 45.7715 51.9024 45.7715H357.521C362.434 45.7715 366.416 49.7537 366.416 54.666V357.592C366.415 362.504 362.432 366.486 357.52 366.486Z" fill="#F8B09B" stroke="#2F243A" stroke-miterlimit="10"/>
<path d="M285.48 270.802H124.155C116.087 270.802 109.547 264.262 109.547 256.194V250.681C109.547 242.613 116.087 236.073 124.155 236.073H285.48C293.548 236.073 300.088 242.613 300.088 250.681V256.194C300.088 264.262 293.548 270.802 285.48 270.802Z" fill="white" stroke="#2F243A" stroke-miterlimit="10"/>
<path d="M285.48 201.009H124.155C116.087 201.009 109.547 194.469 109.547 186.401V180.888C109.547 172.82 116.087 166.28 124.155 166.28H285.48C293.548 166.28 300.088 172.82 300.088 180.888V186.401C300.088 194.469 293.548 201.009 285.48 201.009Z" fill="white" stroke="#2F243A" stroke-miterlimit="10"/>
<path d="M254.938 326.892H154.686C146.618 326.892 140.078 320.352 140.078 312.284V306.771C140.078 298.703 146.618 292.163 154.686 292.163H254.938C263.005 292.163 269.545 298.703 269.545 306.771V312.284C269.546 320.352 263.005 326.892 254.938 326.892Z" fill="#2F243A"/>
<path d="M366.415 71.3527V55.9265C366.415 50.318 361.868 45.7715 356.26 45.7715H53.1628C47.5543 45.7715 43.0078 50.318 43.0078 55.9265V71.3515L366.415 71.3527Z" fill="#2F243A" stroke="#2F243A" stroke-miterlimit="10"/>
<path d="M319.566 64.8516C322.157 64.8516 324.258 62.7512 324.258 60.1602C324.258 57.5692 322.157 55.4688 319.566 55.4688C316.975 55.4688 314.875 57.5692 314.875 60.1602C314.875 62.7512 316.975 64.8516 319.566 64.8516Z" fill="white" stroke="#2F243A" stroke-miterlimit="10"/>
<path d="M335.402 64.8516C337.993 64.8516 340.094 62.7512 340.094 60.1602C340.094 57.5692 337.993 55.4688 335.402 55.4688C332.811 55.4688 330.711 57.5692 330.711 60.1602C330.711 62.7512 332.811 64.8516 335.402 64.8516Z" fill="white" stroke="#2F243A" stroke-miterlimit="10"/>
<path d="M355.922 60.1602C355.922 57.5691 353.822 55.4688 351.23 55.4688C348.639 55.4688 346.539 57.5691 346.539 60.1602C346.539 62.7512 348.639 64.8516 351.23 64.8516C353.822 64.8516 355.922 62.7512 355.922 60.1602Z" fill="white" stroke="#2F243A" stroke-miterlimit="10"/>
<path d="M470.424 78.3174C470.424 90.8401 464.565 102.008 455.405 109.179C448.742 114.447 440.302 117.577 431.164 117.577C422.005 117.577 413.565 114.447 406.902 109.179C397.742 102.008 391.883 90.8401 391.883 78.3174C391.883 56.615 409.46 39.0361 431.164 39.0361C452.846 39.0361 470.424 56.6138 470.424 78.3174Z" fill="#2F243A" stroke="#2F243A" stroke-miterlimit="10"/>
<path d="M447.554 72.1626C447.554 63.1065 440.212 55.7646 431.156 55.7646C422.1 55.7646 414.758 63.1065 414.758 72.1626C414.758 81.2187 422.1 88.5606 431.156 88.5606C440.212 88.5606 447.554 81.2187 447.554 72.1626Z" fill="white" stroke="#2F243A" stroke-miterlimit="10"/>
<path d="M455.402 109.179C448.739 114.447 440.299 117.577 431.161 117.577C422.001 117.577 413.562 114.447 406.898 109.179C409.331 98.0322 419.273 89.6758 431.161 89.6758C443.028 89.6758 452.97 98.031 455.402 109.179Z" fill="white" stroke="#2F243A" stroke-miterlimit="10"/>
<path d="M481.211 108.435L528.407 118.211L515.715 132.74L481.211 108.435Z" fill="white" stroke="#2F243A" stroke-miterlimit="10"/>
<path d="M481.211 108.435L497.046 152.841L511.001 137.296L481.211 108.435Z" fill="white" stroke="#2F243A" stroke-miterlimit="10"/>
<path d="M515.715 132.74L514.64 143.917L511.001 137.296L481.211 108.435L515.715 132.74Z" fill="white" stroke="#2F243A" stroke-miterlimit="10"/>
<path d="M514.638 143.917L508.5 140.431L511 137.296L514.638 143.917Z" fill="white" stroke="#2F243A" stroke-miterlimit="10"/>
<path d="M407.048 408.059V293.825C407.048 266.125 429.583 243.589 457.285 243.589C484.984 243.589 507.521 266.124 507.521 293.825V408.059H528.256V293.825C528.256 254.691 496.419 222.854 457.285 222.854H457.284C418.151 222.854 386.312 254.691 386.312 293.825V408.059H407.048Z" fill="#2F243A"/>
<path d="M545.146 358.358H375.984V547.316H545.146V358.358Z" fill="#B2B2B2"/>
<path d="M545.146 374.432L375.984 543.593V547.315H392.898L545.146 395.067V374.432Z" fill="white"/>
<path d="M375.984 405.416V467.17L484.794 358.358H423.041L375.984 405.416Z" fill="white"/>
<path d="M545.146 358.358H375.984V547.316H545.146V358.358Z" stroke="#2F243A" stroke-miterlimit="10"/>
<path d="M545.143 358.358H509.539V547.316H545.143V358.358Z" fill="#2F243A" stroke="#2F243A" stroke-miterlimit="10"/>
<path d="M447.369 433.127C447.369 426.579 442.061 421.271 435.513 421.271C428.964 421.271 423.656 426.579 423.656 433.127C423.656 438.03 426.632 442.236 430.877 444.042L428.701 469.787H442.326L440.149 444.042C444.393 442.236 447.369 438.03 447.369 433.127Z" fill="#2F243A" stroke="#2F243A" stroke-miterlimit="10"/>
<path d="M128.105 256.961L126.544 256.019L128.502 253.268L125.578 252.154L126.222 250.469L129.022 251.956L128.725 248.536H130.733L130.411 251.956L133.236 250.469L133.856 252.154L130.932 253.293L132.915 256.019L131.304 256.961L129.718 253.864L128.105 256.961Z" fill="#2F243A"/>
<path d="M137.964 256.961L136.403 256.019L138.361 253.268L135.438 252.154L136.081 250.469L138.882 251.956L138.585 248.536H140.592L140.27 251.956L143.095 250.469L143.715 252.154L140.792 253.293L142.775 256.019L141.164 256.961L139.578 253.864L137.964 256.961Z" fill="#2F243A"/>
<path d="M147.832 256.961L146.271 256.019L148.228 253.268L145.305 252.154L145.949 250.469L148.749 251.956L148.452 248.536H150.459L150.137 251.956L152.963 250.469L153.581 252.154L150.658 253.293L152.641 256.019L151.03 256.961L149.444 253.864L147.832 256.961Z" fill="#2F243A"/>
<path d="M157.691 256.961L156.13 256.019L158.088 253.268L155.164 252.154L155.808 250.469L158.608 251.956L158.311 248.536H160.319L159.997 251.956L162.822 250.469L163.441 252.154L160.517 253.293L162.5 256.019L160.889 256.961L159.303 253.864L157.691 256.961Z" fill="#2F243A"/>
<path d="M167.55 256.961L165.989 256.019L167.947 253.268L165.023 252.154L165.667 250.469L168.467 251.956L168.17 248.536H170.178L169.856 251.956L172.681 250.469L173.3 252.154L170.377 253.293L172.359 256.019L170.748 256.961L169.162 253.864L167.55 256.961Z" fill="#2F243A"/>
<path d="M177.417 256.961L175.856 256.019L177.814 253.268L174.891 252.154L175.535 250.469L178.335 251.956L178.038 248.536H180.045L179.723 251.956L182.548 250.469L183.167 252.154L180.244 253.293L182.227 256.019L180.616 256.961L179.03 253.864L177.417 256.961Z" fill="#2F243A"/>
<path d="M187.277 256.961L185.716 256.019L187.674 253.268L184.75 252.154L185.394 250.469L188.194 251.956L187.897 248.536H189.905L189.583 251.956L192.408 250.469L193.027 252.154L190.103 253.293L192.086 256.019L190.475 256.961L188.889 253.864L187.277 256.961Z" fill="#2F243A"/>
<path d="M197.144 256.961L195.583 256.019L197.541 253.268L194.617 252.154L195.261 250.469L198.061 251.956L197.764 248.536H199.772L199.45 251.956L202.275 250.469L202.894 252.154L199.97 253.293L201.953 256.019L200.342 256.961L198.756 253.864L197.144 256.961Z" fill="#2F243A"/>
<path d="M207.003 256.961L205.442 256.019L207.4 253.268L204.477 252.154L205.12 250.469L207.921 251.956L207.624 248.536H209.631L209.309 251.956L212.134 250.469L212.755 252.154L209.831 253.293L211.814 256.019L210.203 256.961L208.617 253.864L207.003 256.961Z" fill="#2F243A"/>
<path d="M216.863 256.961L215.302 256.019L217.26 253.268L214.336 252.154L214.98 250.469L217.78 251.956L217.483 248.536H219.491L219.169 251.956L221.994 250.469L222.613 252.154L219.689 253.293L221.672 256.019L220.062 256.961L218.476 253.864L216.863 256.961Z" fill="#2F243A"/>
<path d="M226.73 256.961L225.169 256.019L227.127 253.268L224.203 252.154L224.847 250.469L227.647 251.956L227.35 248.536H229.358L229.036 251.956L231.861 250.469L232.48 252.154L229.556 253.293L231.539 256.019L229.928 256.961L228.342 253.864L226.73 256.961Z" fill="#2F243A"/>
<path d="M236.589 256.961L235.028 256.019L236.986 253.268L234.062 252.154L234.708 250.469L237.508 251.956L237.211 248.536H239.218L238.896 251.956L241.722 250.469L242.342 252.154L239.418 253.293L241.401 256.019L239.791 256.961L238.205 253.864L236.589 256.961Z" fill="#2F243A"/>
<path d="M246.449 256.961L244.888 256.019L246.846 253.268L243.922 252.154L244.566 250.469L247.366 251.956L247.069 248.536H249.077L248.755 251.956L251.58 250.469L252.199 252.154L249.275 253.293L251.258 256.019L249.648 256.961L248.062 253.864L246.449 256.961Z" fill="#2F243A"/>
<path d="M256.316 256.961L254.755 256.019L256.713 253.268L253.789 252.154L254.433 250.469L257.233 251.956L256.936 248.536H258.944L258.622 251.956L261.447 250.469L262.066 252.154L259.142 253.293L261.125 256.019L259.514 256.961L257.928 253.864L256.316 256.961Z" fill="#2F243A"/>
<path d="M266.175 256.961L264.614 256.019L266.572 253.268L263.648 252.154L264.292 250.469L267.092 251.956L266.795 248.536H268.803L268.481 251.956L271.306 250.469L271.925 252.154L269.002 253.293L270.984 256.019L269.373 256.961L267.787 253.864L266.175 256.961Z" fill="#2F243A"/>
<path d="M276.035 256.961L274.474 256.019L276.431 253.268L273.508 252.154L274.152 250.469L276.952 251.956L276.655 248.536H278.663L278.341 251.956L281.166 250.469L281.785 252.154L278.861 253.293L280.844 256.019L279.233 256.961L277.647 253.864L276.035 256.961Z" fill="#2F243A"/>
<path d="M128.105 187.167L126.544 186.225L128.502 183.475L125.578 182.36L126.222 180.675L129.022 182.162L128.725 178.742H130.733L130.411 182.162L133.236 180.675L133.856 182.36L130.932 183.5L132.915 186.227L131.304 187.169L129.718 184.072L128.105 187.167Z" fill="#2F243A"/>
<path d="M137.964 187.167L136.403 186.225L138.361 183.475L135.438 182.36L136.081 180.675L138.882 182.162L138.585 178.742H140.592L140.27 182.162L143.095 180.675L143.715 182.36L140.792 183.5L142.775 186.227L141.164 187.169L139.578 184.072L137.964 187.167Z" fill="#2F243A"/>
<path d="M147.832 187.167L146.271 186.225L148.228 183.475L145.305 182.36L145.949 180.675L148.749 182.162L148.452 178.742H150.459L150.137 182.162L152.963 180.675L153.581 182.36L150.658 183.5L152.641 186.227L151.03 187.169L149.444 184.072L147.832 187.167Z" fill="#2F243A"/>
<path d="M157.691 187.167L156.13 186.225L158.088 183.475L155.164 182.36L155.808 180.675L158.608 182.162L158.311 178.742H160.319L159.997 182.162L162.822 180.675L163.441 182.36L160.517 183.5L162.5 186.227L160.889 187.169L159.303 184.072L157.691 187.167Z" fill="#2F243A"/>
<path d="M167.55 187.167L165.989 186.225L167.947 183.475L165.023 182.36L165.667 180.675L168.467 182.162L168.17 178.742H170.178L169.856 182.162L172.681 180.675L173.3 182.36L170.377 183.5L172.359 186.227L170.748 187.169L169.162 184.072L167.55 187.167Z" fill="#2F243A"/>
<path d="M177.417 187.167L175.856 186.225L177.814 183.475L174.891 182.36L175.535 180.675L178.335 182.162L178.038 178.742H180.045L179.723 182.162L182.548 180.675L183.167 182.36L180.244 183.5L182.227 186.227L180.616 187.169L179.03 184.072L177.417 187.167Z" fill="#2F243A"/>
<path d="M187.277 187.167L185.716 186.225L187.674 183.475L184.75 182.36L185.394 180.675L188.194 182.162L187.897 178.742H189.905L189.583 182.162L192.408 180.675L193.027 182.36L190.103 183.5L192.086 186.227L190.475 187.169L188.889 184.072L187.277 187.167Z" fill="#2F243A"/>
<path d="M197.144 187.167L195.583 186.225L197.541 183.475L194.617 182.36L195.261 180.675L198.061 182.162L197.764 178.742H199.772L199.45 182.162L202.275 180.675L202.894 182.36L199.97 183.5L201.953 186.227L200.342 187.169L198.756 184.072L197.144 187.167Z" fill="#2F243A"/>
<path d="M207.003 187.167L205.442 186.225L207.4 183.475L204.477 182.36L205.12 180.675L207.921 182.162L207.624 178.742H209.631L209.309 182.162L212.134 180.675L212.755 182.36L209.831 183.5L211.814 186.227L210.203 187.169L208.617 184.072L207.003 187.167Z" fill="#2F243A"/>
<path d="M216.863 187.167L215.302 186.225L217.26 183.475L214.336 182.36L214.98 180.675L217.78 182.162L217.483 178.742H219.491L219.169 182.162L221.994 180.675L222.613 182.36L219.689 183.5L221.672 186.227L220.062 187.169L218.476 184.072L216.863 187.167Z" fill="#2F243A"/>
<path d="M226.73 187.167L225.169 186.225L227.127 183.475L224.203 182.36L224.847 180.675L227.647 182.162L227.35 178.742H229.358L229.036 182.162L231.861 180.675L232.48 182.36L229.556 183.5L231.539 186.227L229.928 187.169L228.342 184.072L226.73 187.167Z" fill="#2F243A"/>
<path d="M236.589 187.167L235.028 186.225L236.986 183.475L234.062 182.36L234.708 180.675L237.508 182.162L237.211 178.742H239.218L238.896 182.162L241.722 180.675L242.342 182.36L239.418 183.5L241.401 186.227L239.791 187.169L238.205 184.072L236.589 187.167Z" fill="#2F243A"/>
<path d="M246.449 187.167L244.888 186.225L246.846 183.475L243.922 182.36L244.566 180.675L247.366 182.162L247.069 178.742H249.077L248.755 182.162L251.58 180.675L252.199 182.36L249.275 183.5L251.258 186.227L249.648 187.169L248.062 184.072L246.449 187.167Z" fill="#2F243A"/>
<path d="M256.316 187.167L254.755 186.225L256.713 183.475L253.789 182.36L254.433 180.675L257.233 182.162L256.936 178.742H258.944L258.622 182.162L261.447 180.675L262.066 182.36L259.142 183.5L261.125 186.227L259.514 187.169L257.928 184.072L256.316 187.167Z" fill="#2F243A"/>
<path d="M266.175 187.167L264.614 186.225L266.572 183.475L263.648 182.36L264.292 180.675L267.092 182.162L266.795 178.742H268.803L268.481 182.162L271.306 180.675L271.925 182.36L269.002 183.5L270.984 186.227L269.373 187.169L267.787 184.072L266.175 187.167Z" fill="#2F243A"/>
<path d="M276.035 187.167L274.474 186.225L276.431 183.475L273.508 182.36L274.152 180.675L276.952 182.162L276.655 178.742H278.663L278.341 182.162L281.166 180.675L281.785 182.36L278.861 183.5L280.844 186.227L279.233 187.169L277.647 184.072L276.035 187.167Z" fill="#2F243A"/>
<path d="M177.438 156.851V146.556H179.992C180.611 146.556 181.104 146.669 181.473 146.893C181.841 147.118 182.11 147.442 182.28 147.865C182.45 148.288 182.534 148.801 182.534 149.402C182.534 149.944 182.439 150.414 182.248 150.813C182.058 151.211 181.775 151.519 181.403 151.734C181.03 151.95 180.564 152.058 180.005 152.058H178.874V156.85L177.438 156.851ZM178.873 151.03H179.533C179.949 151.03 180.274 150.983 180.512 150.889C180.75 150.796 180.918 150.633 181.021 150.4C181.121 150.167 181.173 149.839 181.173 149.415C181.173 148.923 181.136 148.547 181.064 148.284C180.992 148.022 180.842 147.839 180.613 147.738C180.384 147.636 180.029 147.584 179.545 147.584H178.87V151.03H178.873Z" fill="#2F243A"/>
<path d="M182.492 156.851L184.678 146.556H186.063L188.262 156.851H186.902L186.432 154.257H184.334L183.838 156.851H182.492ZM184.525 153.229H186.24L185.377 148.59L184.525 153.229Z" fill="#2F243A"/>
<path d="M191.732 156.965C191.14 156.965 190.647 156.838 190.252 156.584C189.858 156.33 189.56 155.978 189.356 155.529C189.153 155.08 189.034 154.558 189 153.965L190.271 153.622C190.297 153.987 190.354 154.338 190.442 154.676C190.531 155.014 190.679 155.292 190.882 155.509C191.085 155.725 191.369 155.833 191.732 155.833C192.105 155.833 192.387 155.728 192.577 155.522C192.768 155.314 192.863 155.016 192.863 154.626C192.863 154.16 192.758 153.785 192.545 153.501C192.334 153.217 192.066 152.932 191.744 152.643L190.017 151.118C189.678 150.822 189.428 150.498 189.266 150.146C189.106 149.794 189.025 149.361 189.025 148.843C189.025 148.09 189.241 147.504 189.672 147.089C190.105 146.674 190.694 146.467 191.439 146.467C191.845 146.467 192.203 146.52 192.513 146.626C192.822 146.732 193.081 146.894 193.289 147.114C193.495 147.335 193.662 147.612 193.785 147.947C193.908 148.282 193.991 148.674 194.032 149.123L192.812 149.453C192.787 149.115 192.736 148.804 192.66 148.52C192.584 148.236 192.451 148.008 192.26 147.833C192.069 147.66 191.795 147.572 191.44 147.572C191.085 147.572 190.807 147.667 190.607 147.858C190.408 148.049 190.309 148.33 190.309 148.703C190.309 149.016 190.363 149.275 190.468 149.478C190.574 149.682 190.746 149.889 190.983 150.101L192.724 151.626C193.114 151.965 193.457 152.37 193.754 152.84C194.05 153.311 194.199 153.868 194.199 154.512C194.199 155.02 194.093 155.459 193.88 155.827C193.669 156.197 193.378 156.477 193.011 156.672C192.641 156.868 192.216 156.965 191.732 156.965Z" fill="#2F243A"/>
<path d="M197.748 156.965C197.155 156.965 196.662 156.838 196.268 156.584C195.873 156.33 195.575 155.978 195.372 155.529C195.169 155.08 195.05 154.558 195.016 153.965L196.287 153.622C196.313 153.987 196.37 154.338 196.458 154.676C196.547 155.014 196.694 155.292 196.897 155.509C197.101 155.725 197.385 155.833 197.748 155.833C198.121 155.833 198.403 155.728 198.593 155.522C198.784 155.314 198.879 155.016 198.879 154.626C198.879 154.16 198.773 153.785 198.561 153.501C198.349 153.217 198.083 152.932 197.76 152.643L196.033 151.118C195.694 150.822 195.443 150.498 195.282 150.146C195.12 149.794 195.041 149.361 195.041 148.843C195.041 148.09 195.257 147.504 195.688 147.089C196.12 146.674 196.71 146.467 197.455 146.467C197.861 146.467 198.218 146.52 198.529 146.626C198.837 146.732 199.096 146.894 199.304 147.114C199.511 147.335 199.677 147.612 199.801 147.947C199.923 148.282 200.006 148.674 200.048 149.123L198.828 149.453C198.803 149.115 198.752 148.804 198.676 148.52C198.6 148.236 198.467 148.008 198.276 147.833C198.084 147.66 197.811 147.572 197.456 147.572C197.101 147.572 196.821 147.667 196.623 147.858C196.423 148.049 196.325 148.33 196.325 148.703C196.325 149.016 196.378 149.275 196.484 149.478C196.59 149.682 196.762 149.889 196.998 150.101L198.74 151.626C199.13 151.965 199.473 152.37 199.77 152.84C200.066 153.311 200.214 153.868 200.214 154.512C200.214 155.02 200.109 155.459 199.896 155.827C199.684 156.197 199.393 156.477 199.025 156.672C198.657 156.868 198.232 156.965 197.748 156.965Z" fill="#2F243A"/>
<path d="M202.67 156.851L200.992 146.556H202.187L203.292 153.953L204.677 146.595H205.694L207.093 153.991L208.172 146.557H209.343L207.69 156.852H206.647L205.211 149.226L203.761 156.852H202.67V156.851Z" fill="#2F243A"/>
<path d="M213.127 156.965C212.432 156.965 211.878 156.83 211.462 156.559C211.046 156.287 210.75 155.9 210.572 155.396C210.394 154.892 210.305 154.3 210.305 153.623V149.721C210.305 149.044 210.395 148.461 210.578 147.973C210.76 147.486 211.056 147.113 211.468 146.854C211.879 146.596 212.431 146.467 213.126 146.467C213.821 146.467 214.372 146.597 214.779 146.861C215.185 147.124 215.48 147.497 215.663 147.979C215.844 148.463 215.936 149.042 215.936 149.721V153.635C215.936 154.305 215.846 154.889 215.663 155.389C215.48 155.889 215.186 156.276 214.779 156.552C214.374 156.827 213.822 156.965 213.127 156.965ZM213.127 155.834C213.509 155.834 213.797 155.756 213.991 155.599C214.186 155.442 214.318 155.222 214.385 154.938C214.453 154.654 214.488 154.322 214.488 153.941V149.428C214.488 149.047 214.453 148.719 214.385 148.444C214.318 148.168 214.186 147.957 213.991 147.808C213.796 147.661 213.509 147.586 213.127 147.586C212.746 147.586 212.456 147.661 212.257 147.808C212.057 147.957 211.924 148.168 211.856 148.444C211.788 148.719 211.755 149.047 211.755 149.428V153.941C211.755 154.322 211.788 154.654 211.856 154.938C211.924 155.222 212.057 155.442 212.257 155.599C212.456 155.756 212.746 155.834 213.127 155.834Z" fill="#2F243A"/>
<path d="M217.344 156.851V146.556H219.416C220.102 146.556 220.669 146.647 221.118 146.829C221.567 147.011 221.9 147.303 222.116 147.706C222.332 148.107 222.44 148.636 222.44 149.288C222.44 149.686 222.398 150.048 222.313 150.375C222.229 150.701 222.092 150.976 221.907 151.201C221.72 151.425 221.474 151.588 221.169 151.69L222.63 156.85H221.245L219.898 152.02H218.779V156.85L217.344 156.851ZM218.779 150.992H219.327C219.733 150.992 220.063 150.942 220.317 150.84C220.572 150.739 220.758 150.564 220.877 150.318C220.996 150.072 221.054 149.729 221.054 149.289C221.054 148.688 220.943 148.253 220.724 147.986C220.503 147.719 220.067 147.586 219.414 147.586H218.779V150.992Z" fill="#2F243A"/>
<path d="M223.945 156.851V146.556H226.182C226.945 146.556 227.549 146.672 227.994 146.905C228.44 147.138 228.757 147.487 228.947 147.953C229.137 148.418 229.233 148.999 229.233 149.694V153.482C229.233 154.21 229.138 154.824 228.947 155.324C228.756 155.824 228.447 156.203 228.019 156.462C227.591 156.72 227.017 156.85 226.298 156.85L223.945 156.851ZM225.38 155.821H226.194C226.719 155.821 227.092 155.719 227.312 155.516C227.533 155.312 227.666 155.015 227.712 154.626C227.759 154.236 227.783 153.766 227.783 153.216V149.873C227.783 149.339 227.749 148.907 227.682 148.576C227.614 148.246 227.465 148.005 227.236 147.852C227.008 147.7 226.647 147.624 226.156 147.624H225.38V155.821Z" fill="#2F243A"/>
<path d="M107.195 119.386V102.906H111.467C112.579 102.906 113.532 103.031 114.326 103.283C115.119 103.534 115.73 103.978 116.156 104.616C116.584 105.254 116.798 106.135 116.798 107.261C116.798 107.94 116.74 108.54 116.624 109.062C116.508 109.584 116.305 110.039 116.014 110.425C115.722 110.812 115.312 111.12 114.783 111.351L117.062 119.387H113.622L111.73 111.921H110.55V119.387L107.195 119.386ZM110.553 109.925H111.529C112.072 109.925 112.499 109.837 112.811 109.661C113.123 109.485 113.343 109.217 113.472 108.857C113.6 108.498 113.665 108.054 113.665 107.524C113.665 106.765 113.526 106.185 113.248 105.785C112.97 105.384 112.451 105.184 111.692 105.184H110.553V109.925Z" fill="#2F243A"/>
<path d="M119 119.386V102.906H126.181V105.225H122.357V109.599H125.307V111.939H122.357V117.106H126.223V119.385H119V119.386Z" fill="#2F243A"/>
<path d="M132.18 119.611C131.163 119.611 130.314 119.424 129.636 119.051C128.958 118.678 128.446 118.115 128.1 117.362C127.754 116.61 127.553 115.65 127.5 114.483L130.389 113.995C130.417 114.675 130.487 115.24 130.602 115.694C130.717 116.149 130.893 116.487 131.132 116.711C131.369 116.934 131.664 117.047 132.017 117.047C132.452 117.047 132.746 116.912 132.902 116.641C133.057 116.369 133.136 116.057 133.136 115.705C133.136 115.012 132.97 114.433 132.637 113.964C132.304 113.496 131.867 113.024 131.325 112.55L129.616 111.065C129.005 110.55 128.507 109.967 128.12 109.316C127.734 108.665 127.54 107.864 127.54 106.915C127.54 105.558 127.937 104.517 128.731 103.791C129.524 103.067 130.613 102.703 131.997 102.703C132.823 102.703 133.502 102.839 134.032 103.109C134.56 103.381 134.97 103.744 135.262 104.199C135.553 104.653 135.758 105.148 135.873 105.684C135.988 106.22 136.06 106.752 136.087 107.282L133.219 107.709C133.192 107.207 133.148 106.767 133.086 106.387C133.025 106.008 132.903 105.709 132.72 105.491C132.537 105.275 132.263 105.166 131.897 105.166C131.504 105.166 131.213 105.312 131.022 105.603C130.832 105.895 130.737 106.217 130.737 106.569C130.737 107.152 130.869 107.631 131.134 108.004C131.398 108.377 131.761 108.767 132.222 109.174L133.89 110.639C134.582 111.237 135.174 111.917 135.67 112.684C136.164 113.45 136.412 114.397 136.412 115.522C136.412 116.295 136.235 116.994 135.884 117.617C135.531 118.242 135.039 118.73 134.408 119.082C133.777 119.434 133.034 119.611 132.18 119.611Z" fill="#2F243A"/>
<path d="M137.922 119.386V102.906H145.103V105.225H141.279V109.599H144.229V111.939H141.279V117.106H145.145V119.385H137.922V119.386Z" fill="#2F243A"/>
<path d="M148.372 119.386V105.408H145.828V102.906H154.251V105.408H151.748V119.386H148.372Z" fill="#2F243A"/>
<path d="M162.98 119.386V112.855L159.766 102.905H162.92L164.69 108.704L166.338 102.905H169.39L166.215 112.855V119.386H162.98Z" fill="#2F243A"/>
<path d="M175.131 119.611C173.924 119.611 172.968 119.394 172.262 118.96C171.557 118.526 171.052 117.906 170.746 117.098C170.442 116.292 170.289 115.326 170.289 114.198V108.054C170.289 106.928 170.442 105.966 170.746 105.165C171.052 104.364 171.557 103.754 172.262 103.333C172.968 102.912 173.924 102.702 175.131 102.702C176.351 102.702 177.318 102.916 178.03 103.342C178.742 103.77 179.25 104.381 179.557 105.174C179.863 105.968 180.014 106.928 180.014 108.053V114.197C180.014 115.323 179.862 116.29 179.557 117.097C179.251 117.905 178.743 118.525 178.03 118.959C177.318 119.394 176.353 119.611 175.131 119.611ZM175.131 117.189C175.565 117.189 175.883 117.09 176.086 116.894C176.291 116.697 176.425 116.433 176.494 116.1C176.562 115.768 176.595 115.413 176.595 115.032V107.24C176.595 106.861 176.562 106.507 176.494 106.183C176.426 105.857 176.291 105.596 176.086 105.399C175.883 105.202 175.565 105.104 175.131 105.104C174.724 105.104 174.419 105.202 174.215 105.399C174.012 105.596 173.877 105.856 173.809 106.183C173.741 106.509 173.707 106.861 173.707 107.24V115.032C173.707 115.413 173.738 115.768 173.798 116.1C173.86 116.433 173.992 116.697 174.195 116.894C174.4 117.091 174.711 117.189 175.131 117.189Z" fill="#2F243A"/>
<path d="M186.89 119.611C185.642 119.611 184.672 119.397 183.98 118.969C183.289 118.543 182.803 117.925 182.526 117.118C182.248 116.31 182.109 115.332 182.109 114.178V102.906H185.425V114.646C185.425 115.054 185.456 115.454 185.517 115.847C185.578 116.24 185.714 116.559 185.924 116.803C186.134 117.047 186.456 117.169 186.89 117.169C187.338 117.169 187.666 117.047 187.877 116.803C188.087 116.559 188.219 116.24 188.274 115.847C188.329 115.454 188.356 115.054 188.356 114.646V102.906H191.672V114.178C191.672 115.33 191.533 116.31 191.255 117.118C190.977 117.925 190.492 118.543 189.799 118.969C189.108 119.396 188.137 119.611 186.89 119.611Z" fill="#2F243A"/>
<path d="M194.008 119.386V102.906H198.28C199.392 102.906 200.345 103.031 201.138 103.283C201.932 103.534 202.542 103.978 202.969 104.616C203.397 105.254 203.61 106.135 203.61 107.261C203.61 107.94 203.552 108.54 203.437 109.062C203.321 109.584 203.117 110.039 202.826 110.425C202.534 110.812 202.124 111.12 201.596 111.351L203.874 119.387H200.435L198.542 111.921H197.363V119.387L194.008 119.386ZM197.365 109.925H198.342C198.885 109.925 199.311 109.837 199.623 109.661C199.936 109.485 200.156 109.217 200.284 108.857C200.412 108.498 200.478 108.054 200.478 107.524C200.478 106.765 200.339 106.185 200.061 105.785C199.783 105.384 199.264 105.184 198.504 105.184H197.365V109.925Z" fill="#2F243A"/>
<path d="M210.898 119.386V102.906H216.127C217.118 102.906 217.924 103.093 218.548 103.466C219.172 103.839 219.636 104.378 219.941 105.083C220.247 105.788 220.399 106.643 220.399 107.646C220.399 108.826 220.199 109.749 219.799 110.413C219.399 111.079 218.852 111.55 218.161 111.828C217.469 112.106 216.676 112.245 215.78 112.245H214.255V119.387L210.898 119.386ZM214.256 109.885H215.435C215.924 109.885 216.3 109.806 216.565 109.651C216.83 109.495 217.01 109.247 217.105 108.908C217.2 108.569 217.247 108.135 217.247 107.606C217.247 107.105 217.209 106.684 217.135 106.344C217.061 106.006 216.894 105.741 216.636 105.551C216.379 105.361 215.971 105.266 215.416 105.266H214.257L214.256 109.885Z" fill="#2F243A"/>
<path d="M220.398 119.386L223.593 102.906H227.316L230.49 119.386H227.378L226.787 115.765H224.183L223.553 119.386H220.398ZM224.488 113.71H226.461L225.463 107.057L224.488 113.71Z" fill="#2F243A"/>
<path d="M236.305 119.611C235.288 119.611 234.439 119.424 233.761 119.051C233.083 118.678 232.571 118.115 232.225 117.362C231.879 116.61 231.678 115.65 231.625 114.483L234.514 113.995C234.542 114.675 234.613 115.24 234.728 115.694C234.843 116.149 235.019 116.487 235.257 116.711C235.494 116.934 235.789 117.047 236.142 117.047C236.577 117.047 236.871 116.912 237.027 116.641C237.182 116.369 237.261 116.057 237.261 115.705C237.261 115.012 237.095 114.433 236.762 113.964C236.429 113.496 235.992 113.024 235.45 112.55L233.741 111.065C233.13 110.55 232.632 109.967 232.245 109.316C231.859 108.665 231.665 107.864 231.665 106.915C231.665 105.558 232.062 104.517 232.856 103.791C233.649 103.067 234.738 102.703 236.122 102.703C236.948 102.703 237.627 102.839 238.157 103.109C238.685 103.381 239.095 103.744 239.387 104.199C239.678 104.653 239.883 105.148 239.998 105.684C240.113 106.22 240.185 106.752 240.211 107.282L237.343 107.709C237.316 107.207 237.272 106.767 237.21 106.387C237.149 106.008 237.027 105.709 236.844 105.491C236.661 105.275 236.386 105.166 236.019 105.166C235.626 105.166 235.335 105.312 235.145 105.603C234.955 105.895 234.86 106.217 234.86 106.569C234.86 107.152 234.992 107.631 235.257 108.004C235.52 108.377 235.884 108.767 236.346 109.174L238.014 110.639C238.705 111.237 239.298 111.917 239.795 112.684C240.29 113.45 240.537 114.397 240.537 115.522C240.537 116.295 240.36 116.994 240.009 117.617C239.656 118.242 239.164 118.73 238.533 119.082C237.902 119.434 237.16 119.611 236.305 119.611Z" fill="#2F243A"/>
<path d="M246.32 119.611C245.303 119.611 244.455 119.424 243.777 119.051C243.098 118.678 242.586 118.115 242.241 117.362C241.895 116.61 241.694 115.65 241.641 114.483L244.53 113.995C244.557 114.675 244.627 115.24 244.742 115.694C244.858 116.149 245.034 116.487 245.271 116.711C245.509 116.934 245.803 117.047 246.156 117.047C246.591 117.047 246.886 116.912 247.041 116.641C247.197 116.369 247.275 116.057 247.275 115.705C247.275 115.012 247.109 114.433 246.776 113.964C246.444 113.496 246.007 113.024 245.465 112.55L243.755 111.065C243.146 110.55 242.647 109.967 242.26 109.316C241.873 108.665 241.68 107.864 241.68 106.915C241.68 105.558 242.077 104.517 242.87 103.791C243.664 103.067 244.752 102.703 246.136 102.703C246.963 102.703 247.641 102.839 248.171 103.109C248.7 103.381 249.11 103.744 249.402 104.199C249.693 104.653 249.897 105.148 250.012 105.684C250.128 106.22 250.199 106.752 250.226 107.282L247.357 107.709C247.33 107.207 247.286 106.767 247.225 106.387C247.165 106.008 247.042 105.709 246.86 105.491C246.677 105.275 246.402 105.166 246.036 105.166C245.643 105.166 245.352 105.312 245.162 105.603C244.972 105.895 244.877 106.217 244.877 106.569C244.877 107.152 245.009 107.631 245.274 108.004C245.537 108.377 245.901 108.767 246.363 109.174L248.031 110.639C248.722 111.237 249.316 111.917 249.812 112.684C250.306 113.45 250.554 114.397 250.554 115.522C250.554 116.295 250.377 116.994 250.026 117.617C249.673 118.242 249.181 118.73 248.55 119.082C247.918 119.434 247.176 119.611 246.32 119.611Z" fill="#2F243A"/>
<path d="M253.808 119.386L251.672 102.906H254.521L255.66 112.977L257.105 102.926H259.363L260.868 112.957L262.007 102.906H264.815L262.699 119.386H259.85L258.243 108.95L256.717 119.386H253.808Z" fill="#2F243A"/>
<path d="M271.178 119.611C269.971 119.611 269.015 119.394 268.309 118.96C267.604 118.526 267.099 117.906 266.793 117.098C266.488 116.292 266.336 115.326 266.336 114.198V108.054C266.336 106.928 266.489 105.966 266.793 105.165C267.099 104.364 267.604 103.754 268.309 103.333C269.015 102.912 269.971 102.702 271.178 102.702C272.398 102.702 273.365 102.916 274.077 103.342C274.789 103.77 275.297 104.381 275.602 105.174C275.908 105.968 276.06 106.928 276.06 108.053V114.197C276.06 115.323 275.908 116.29 275.602 117.097C275.297 117.905 274.789 118.525 274.077 118.959C273.365 119.394 272.399 119.611 271.178 119.611ZM271.178 117.189C271.612 117.189 271.93 117.09 272.135 116.894C272.339 116.697 272.473 116.433 272.542 116.1C272.61 115.768 272.643 115.413 272.643 115.032V107.24C272.643 106.861 272.61 106.507 272.542 106.183C272.474 105.857 272.339 105.596 272.135 105.399C271.931 105.202 271.613 105.104 271.178 105.104C270.771 105.104 270.465 105.202 270.262 105.399C270.059 105.596 269.924 105.856 269.856 106.183C269.788 106.509 269.754 106.861 269.754 107.24V115.032C269.754 115.413 269.785 115.768 269.845 116.1C269.907 116.433 270.039 116.697 270.242 116.894C270.446 117.091 270.758 117.189 271.178 117.189Z" fill="#2F243A"/>
<path d="M278.305 119.386V102.906H282.577C283.689 102.906 284.641 103.031 285.435 103.283C286.229 103.534 286.839 103.978 287.267 104.616C287.695 105.254 287.908 106.135 287.908 107.261C287.908 107.94 287.85 108.54 287.735 109.062C287.619 109.584 287.415 110.039 287.124 110.425C286.832 110.812 286.422 111.12 285.894 111.351L288.172 119.387H284.733L282.84 111.921H281.661V119.387L278.305 119.386ZM281.662 109.925H282.639C283.181 109.925 283.608 109.837 283.92 109.661C284.233 109.485 284.453 109.217 284.581 108.857C284.709 108.498 284.775 108.054 284.775 107.524C284.775 106.765 284.636 106.185 284.358 105.785C284.08 105.384 283.56 105.184 282.801 105.184H281.662V109.925Z" fill="#2F243A"/>
<path d="M290.102 119.386V102.906H294.13C295.527 102.906 296.615 103.086 297.396 103.446C298.175 103.806 298.729 104.369 299.054 105.135C299.38 105.901 299.543 106.881 299.543 108.075V114.077C299.543 115.297 299.38 116.302 299.054 117.089C298.729 117.875 298.182 118.455 297.416 118.828C296.649 119.201 295.582 119.387 294.211 119.387L290.102 119.386ZM293.459 117.046H294.17C294.794 117.046 295.238 116.948 295.503 116.751C295.768 116.554 295.933 116.263 296.002 115.877C296.07 115.49 296.103 115.012 296.103 114.442V107.646C296.103 107.076 296.059 106.619 295.971 106.273C295.882 105.927 295.707 105.673 295.442 105.51C295.178 105.348 294.747 105.266 294.149 105.266H293.458V117.046H293.459Z" fill="#2F243A"/>
<path d="M151.166 316.085C150.322 316.085 149.652 315.926 149.159 315.606C148.666 315.287 148.321 314.844 148.124 314.275C147.927 313.707 147.828 313.046 147.828 312.296V308.197C147.828 307.408 147.927 306.73 148.124 306.161C148.321 305.593 148.667 305.154 149.159 304.844C149.652 304.534 150.321 304.38 151.166 304.38C151.983 304.38 152.624 304.516 153.089 304.789C153.553 305.061 153.882 305.446 154.075 305.943C154.267 306.441 154.363 307.018 154.363 307.675V308.633H152.11V307.563C152.11 307.3 152.095 307.053 152.067 306.822C152.038 306.593 151.961 306.404 151.834 306.259C151.708 306.114 151.49 306.042 151.179 306.042C150.869 306.042 150.645 306.117 150.503 306.266C150.362 306.417 150.274 306.611 150.236 306.851C150.198 307.09 150.18 307.356 150.18 307.647V312.83C150.18 313.15 150.206 313.429 150.258 313.668C150.31 313.908 150.408 314.091 150.553 314.218C150.698 314.345 150.907 314.408 151.179 314.408C151.48 314.408 151.694 314.335 151.821 314.189C151.948 314.044 152.027 313.849 152.06 313.605C152.093 313.36 152.11 313.102 152.11 312.83V311.718H154.363V312.661C154.363 313.328 154.269 313.917 154.081 314.429C153.893 314.941 153.569 315.345 153.109 315.641C152.65 315.937 152.003 316.085 151.166 316.085Z" fill="#E8E8E8"/>
<path d="M155.812 315.93V304.521H158.136V309.211H160.151V304.521H162.475V315.93H160.151V310.873H158.136V315.93H155.812Z" fill="#E8E8E8"/>
<path d="M163.672 315.93L165.883 304.521H168.461L170.659 315.93H168.503L168.095 313.422H166.291L165.854 315.93H163.672ZM166.504 312H167.87L167.18 307.394L166.504 312Z" fill="#E8E8E8"/>
<path d="M171.734 315.93V304.521H173.355L175.891 310.465V304.521H177.806V315.93H176.257L173.721 309.619V315.93H171.734Z" fill="#E8E8E8"/>
<path d="M182.452 316.098C181.683 316.098 181.072 315.937 180.621 315.612C180.169 315.288 179.848 314.828 179.656 314.232C179.463 313.636 179.367 312.943 179.367 312.154V308.337C179.367 307.521 179.466 306.815 179.663 306.225C179.86 305.633 180.206 305.178 180.698 304.859C181.191 304.539 181.86 304.38 182.705 304.38C183.522 304.38 184.168 304.516 184.642 304.789C185.116 305.061 185.457 305.446 185.664 305.943C185.87 306.441 185.974 307.033 185.974 307.718V308.38H183.706V307.577C183.706 307.276 183.687 307.011 183.65 306.781C183.612 306.55 183.525 306.37 183.389 306.238C183.253 306.107 183.035 306.041 182.734 306.041C182.424 306.041 182.199 306.12 182.058 306.279C181.918 306.439 181.829 306.644 181.791 306.892C181.753 307.142 181.735 307.407 181.735 307.688V312.746C181.735 313.065 181.763 313.352 181.819 313.606C181.875 313.86 181.981 314.056 182.135 314.198C182.29 314.339 182.513 314.409 182.805 314.409C183.096 314.409 183.321 314.334 183.481 314.183C183.64 314.034 183.751 313.829 183.811 313.57C183.872 313.312 183.903 313.019 183.903 312.69V311.478H182.79V310.069H186.002V315.93H184.48L184.339 314.901C184.189 315.249 183.964 315.535 183.663 315.761C183.364 315.987 182.96 316.098 182.452 316.098Z" fill="#E8E8E8"/>
<path d="M187.594 315.93V304.521H192.567V306.126H189.919V309.154H191.961V310.774H189.919V314.352H192.595V315.93H187.594Z" fill="#E8E8E8"/>
<path d="M197.281 315.93V304.521H200.901C201.587 304.521 202.146 304.65 202.577 304.908C203.009 305.167 203.331 305.54 203.542 306.028C203.753 306.516 203.859 307.108 203.859 307.803C203.859 308.62 203.72 309.258 203.443 309.719C203.167 310.179 202.789 310.506 202.31 310.698C201.831 310.891 201.282 310.987 200.662 310.987H199.606V315.931H197.281V315.93ZM199.606 309.352H200.422C200.761 309.352 201.021 309.297 201.204 309.189C201.387 309.081 201.512 308.91 201.577 308.675C201.642 308.441 201.676 308.14 201.676 307.773C201.676 307.425 201.65 307.135 201.598 306.9C201.546 306.666 201.431 306.482 201.254 306.351C201.076 306.219 200.794 306.154 200.409 306.154H199.606V309.352Z" fill="#E8E8E8"/>
<path d="M203.859 315.93L206.07 304.521H208.648L210.846 315.93H208.691L208.282 313.422H206.48L206.043 315.93H203.859ZM206.69 312H208.057L207.366 307.394L206.69 312Z" fill="#E8E8E8"/>
<path d="M214.88 316.085C214.176 316.085 213.589 315.956 213.12 315.698C212.65 315.44 212.295 315.05 212.056 314.529C211.818 314.007 211.679 313.343 211.641 312.535L213.641 312.198C213.66 312.667 213.709 313.059 213.789 313.374C213.868 313.689 213.99 313.923 214.154 314.079C214.318 314.234 214.524 314.312 214.767 314.312C215.068 314.312 215.272 314.218 215.38 314.03C215.489 313.842 215.542 313.626 215.542 313.381C215.542 312.903 215.427 312.501 215.196 312.177C214.967 311.852 214.663 311.527 214.287 311.198L213.104 310.169C212.681 309.813 212.337 309.409 212.069 308.957C211.802 308.507 211.668 307.952 211.668 307.295C211.668 306.357 211.942 305.636 212.492 305.133C213.041 304.631 213.796 304.38 214.753 304.38C215.326 304.38 215.795 304.474 216.162 304.661C216.528 304.849 216.812 305.101 217.014 305.415C217.216 305.729 217.356 306.073 217.437 306.443C217.516 306.814 217.566 307.182 217.584 307.548L215.598 307.844C215.579 307.497 215.549 307.192 215.506 306.928C215.464 306.666 215.379 306.459 215.252 306.308C215.125 306.158 214.935 306.082 214.682 306.082C214.41 306.082 214.208 306.183 214.076 306.385C213.945 306.587 213.879 306.809 213.879 307.054C213.879 307.458 213.97 307.789 214.153 308.047C214.336 308.305 214.588 308.576 214.906 308.857L216.061 309.872C216.54 310.285 216.951 310.757 217.294 311.287C217.638 311.818 217.809 312.473 217.809 313.252C217.809 313.788 217.686 314.271 217.443 314.702C217.198 315.134 216.858 315.472 216.421 315.716C215.986 315.963 215.472 316.085 214.88 316.085Z" fill="#E8E8E8"/>
<path d="M221.81 316.085C221.106 316.085 220.519 315.956 220.049 315.698C219.58 315.44 219.226 315.05 218.986 314.529C218.747 314.007 218.608 313.343 218.57 312.535L220.571 312.198C220.59 312.667 220.639 313.059 220.718 313.374C220.798 313.689 220.92 313.923 221.084 314.079C221.248 314.234 221.454 314.312 221.697 314.312C221.998 314.312 222.202 314.218 222.31 314.03C222.418 313.842 222.472 313.626 222.472 313.381C222.472 312.903 222.358 312.501 222.127 312.177C221.898 311.852 221.594 311.527 221.218 311.198L220.035 310.169C219.612 309.813 219.268 309.409 219 308.957C218.733 308.507 218.599 307.952 218.599 307.295C218.599 306.357 218.873 305.636 219.423 305.133C219.972 304.631 220.725 304.38 221.684 304.38C222.257 304.38 222.727 304.474 223.093 304.661C223.459 304.849 223.743 305.101 223.945 305.415C224.147 305.729 224.287 306.073 224.368 306.443C224.447 306.814 224.497 307.182 224.515 307.548L222.529 307.844C222.51 307.497 222.48 307.192 222.437 306.928C222.394 306.666 222.311 306.459 222.184 306.308C222.057 306.158 221.867 306.082 221.614 306.082C221.342 306.082 221.14 306.183 221.008 306.385C220.877 306.587 220.811 306.809 220.811 307.054C220.811 307.458 220.902 307.789 221.085 308.047C221.268 308.305 221.52 308.576 221.838 308.857L222.993 309.872C223.472 310.285 223.883 310.757 224.226 311.287C224.57 311.818 224.741 312.473 224.741 313.252C224.741 313.788 224.618 314.271 224.375 314.702C224.13 315.134 223.79 315.472 223.353 315.716C222.915 315.963 222.402 316.085 221.81 316.085Z" fill="#E8E8E8"/>
<path d="M226.987 315.93L225.508 304.521H227.48L228.269 311.493L229.269 304.535H230.832L231.875 311.479L232.664 304.521H234.608L233.143 315.93H231.171L230.058 308.703L229.002 315.93H226.987Z" fill="#E8E8E8"/>
<path d="M239.017 316.085C238.18 316.085 237.519 315.936 237.03 315.634C236.542 315.333 236.193 314.904 235.981 314.345C235.77 313.786 235.664 313.118 235.664 312.338V308.084C235.664 307.305 235.77 306.637 235.981 306.083C236.193 305.53 236.542 305.107 237.03 304.816C237.519 304.525 238.18 304.38 239.017 304.38C239.861 304.38 240.53 304.527 241.024 304.824C241.517 305.12 241.869 305.543 242.08 306.092C242.292 306.642 242.398 307.306 242.398 308.085V312.339C242.398 313.119 242.292 313.788 242.08 314.346C241.869 314.904 241.517 315.334 241.024 315.635C240.53 315.934 239.861 316.085 239.017 316.085ZM239.017 314.409C239.317 314.409 239.538 314.341 239.678 314.205C239.818 314.068 239.912 313.885 239.96 313.655C240.007 313.425 240.03 313.178 240.03 312.916V307.521C240.03 307.258 240.006 307.014 239.96 306.788C239.912 306.562 239.818 306.382 239.678 306.245C239.537 306.11 239.317 306.041 239.017 306.041C238.735 306.041 238.524 306.108 238.383 306.245C238.242 306.382 238.148 306.562 238.102 306.788C238.054 307.013 238.031 307.257 238.031 307.521V312.916C238.031 313.178 238.052 313.425 238.094 313.655C238.136 313.885 238.228 314.068 238.368 314.205C238.509 314.34 238.726 314.409 239.017 314.409Z" fill="#E8E8E8"/>
<path d="M243.945 315.93V304.521H246.903C247.673 304.521 248.333 304.607 248.883 304.781C249.431 304.955 249.854 305.262 250.15 305.704C250.446 306.146 250.593 306.755 250.593 307.536C250.593 308.005 250.554 308.421 250.473 308.782C250.394 309.143 250.252 309.458 250.05 309.725C249.848 309.992 249.565 310.206 249.199 310.367L250.776 315.931H248.396L247.085 310.762H246.269V315.931H243.945V315.93ZM246.27 309.381H246.946C247.322 309.381 247.617 309.32 247.834 309.198C248.05 309.075 248.203 308.89 248.292 308.642C248.381 308.392 248.426 308.086 248.426 307.719C248.426 307.192 248.33 306.791 248.138 306.514C247.945 306.237 247.587 306.099 247.06 306.099H246.271V309.381H246.27Z" fill="#E8E8E8"/>
<path d="M252.117 315.93V304.521H254.907C255.874 304.521 256.627 304.645 257.167 304.894C257.707 305.143 258.09 305.533 258.315 306.063C258.541 306.594 258.654 307.271 258.654 308.098V312.253C258.654 313.098 258.541 313.794 258.315 314.338C258.089 314.882 257.711 315.284 257.182 315.542C256.651 315.799 255.912 315.929 254.964 315.929L252.117 315.93ZM254.441 314.31H254.934C255.366 314.31 255.674 314.242 255.857 314.105C256.04 313.969 256.155 313.767 256.202 313.499C256.249 313.232 256.273 312.901 256.273 312.506V307.802C256.273 307.407 256.242 307.09 256.181 306.851C256.121 306.611 255.998 306.436 255.815 306.323C255.632 306.21 255.334 306.154 254.921 306.154H254.442L254.441 314.31Z" fill="#E8E8E8"/>
<path d="M156.958 226.424C156.228 226.424 155.663 226.271 155.261 225.967C154.859 225.661 154.58 225.25 154.423 224.733C154.266 224.217 154.188 223.64 154.188 223.006V219.371C154.188 218.676 154.266 218.07 154.423 217.553C154.58 217.036 154.859 216.636 155.261 216.352C155.663 216.068 156.228 215.927 156.958 215.927C157.602 215.927 158.113 216.046 158.489 216.282C158.866 216.52 159.138 216.858 159.303 217.299C159.468 217.74 159.55 218.269 159.55 218.887V219.701H158.19V218.976C158.19 218.596 158.171 218.259 158.133 217.967C158.095 217.674 157.99 217.447 157.822 217.287C157.652 217.127 157.368 217.045 156.97 217.045C156.564 217.045 156.267 217.133 156.08 217.306C155.893 217.479 155.773 217.725 155.719 218.043C155.663 218.361 155.636 218.73 155.636 219.155V223.234C155.636 223.751 155.678 224.16 155.763 224.461C155.847 224.762 155.987 224.976 156.182 225.103C156.377 225.23 156.64 225.294 156.97 225.294C157.359 225.294 157.639 225.207 157.809 225.033C157.978 224.859 158.084 224.621 158.127 224.315C158.17 224.011 158.19 223.655 158.19 223.247V222.485H159.55V223.247C159.55 223.874 159.474 224.427 159.322 224.906C159.17 225.384 158.906 225.757 158.534 226.025C158.16 226.29 157.635 226.424 156.958 226.424Z" fill="#2F243A"/>
<path d="M163.557 226.424C162.862 226.424 162.307 226.289 161.891 226.018C161.477 225.746 161.18 225.359 161.002 224.855C160.823 224.351 160.734 223.759 160.734 223.082V219.18C160.734 218.503 160.825 217.92 161.008 217.432C161.189 216.945 161.485 216.572 161.897 216.313C162.308 216.055 162.861 215.926 163.556 215.926C164.251 215.926 164.802 216.056 165.208 216.32C165.615 216.583 165.909 216.956 166.092 217.438C166.274 217.922 166.365 218.501 166.365 219.18V223.094C166.365 223.764 166.275 224.348 166.092 224.848C165.91 225.348 165.616 225.735 165.208 226.011C164.803 226.286 164.252 226.424 163.557 226.424ZM163.557 225.293C163.938 225.293 164.227 225.215 164.422 225.058C164.617 224.901 164.749 224.681 164.816 224.397C164.884 224.113 164.918 223.781 164.918 223.399V218.887C164.918 218.506 164.884 218.178 164.816 217.903C164.749 217.627 164.617 217.416 164.422 217.267C164.227 217.12 163.94 217.045 163.557 217.045C163.177 217.045 162.886 217.12 162.687 217.267C162.488 217.416 162.355 217.627 162.287 217.903C162.219 218.178 162.186 218.506 162.186 218.887V223.399C162.186 223.781 162.221 224.113 162.287 224.397C162.355 224.681 162.488 224.901 162.687 225.058C162.886 225.215 163.176 225.293 163.557 225.293Z" fill="#2F243A"/>
<path d="M167.773 226.31V216.015H168.752L171.675 222.853V216.015H172.87V226.31H171.955L168.994 219.282V226.31H167.773Z" fill="#2F243A"/>
<path d="M174.484 226.31V216.015H178.462V217.043H175.919V220.476H177.89V221.493H175.919V226.31H174.484Z" fill="#2F243A"/>
<path d="M179.531 226.31V216.015H180.941V226.31H179.531Z" fill="#2F243A"/>
<path d="M182.602 226.31V216.015H184.673C185.36 216.015 185.927 216.106 186.376 216.288C186.825 216.47 187.158 216.762 187.374 217.165C187.59 217.566 187.698 218.095 187.698 218.747C187.698 219.145 187.655 219.507 187.571 219.834C187.487 220.16 187.35 220.435 187.165 220.66C186.978 220.884 186.733 221.047 186.428 221.149L187.889 226.309H186.504L185.157 221.479H184.038V226.309L182.602 226.31ZM184.038 220.449H184.584C184.991 220.449 185.321 220.4 185.575 220.297C185.829 220.196 186.016 220.022 186.135 219.776C186.253 219.53 186.312 219.187 186.312 218.747C186.312 218.146 186.202 217.711 185.981 217.444C185.76 217.177 185.324 217.043 184.672 217.043H184.037V220.449H184.038Z" fill="#2F243A"/>
<path d="M189.18 226.31L189.37 216.015H190.781L192.599 224.365L194.428 216.015H195.827L196.018 226.31H194.862L194.748 218.836L193.006 226.31H192.192L190.464 218.836L190.35 226.31H189.18Z" fill="#2F243A"/>
<path d="M200.5 226.31V216.015H203.054C203.673 216.015 204.166 216.128 204.536 216.352C204.904 216.577 205.172 216.901 205.342 217.324C205.512 217.747 205.597 218.26 205.597 218.861C205.597 219.403 205.501 219.873 205.31 220.272C205.12 220.67 204.837 220.978 204.466 221.193C204.093 221.409 203.627 221.517 203.067 221.517H201.936V226.309L200.5 226.31ZM201.936 220.489H202.597C203.013 220.489 203.338 220.442 203.576 220.348C203.813 220.255 203.982 220.092 204.084 219.859C204.185 219.626 204.236 219.298 204.236 218.874C204.236 218.382 204.199 218.006 204.128 217.743C204.056 217.481 203.906 217.298 203.677 217.197C203.447 217.095 203.092 217.043 202.609 217.043H201.934V220.489H201.936Z" fill="#2F243A"/>
<path d="M205.562 226.31L207.748 216.015H209.134L211.333 226.31H209.974L209.503 223.716H207.405L206.91 226.31H205.562ZM207.595 222.688H209.311L208.447 218.049L207.595 222.688Z" fill="#2F243A"/>
<path d="M214.795 226.424C214.202 226.424 213.709 226.297 213.315 226.043C212.92 225.789 212.622 225.437 212.419 224.988C212.216 224.539 212.097 224.017 212.062 223.424L213.334 223.081C213.36 223.446 213.417 223.797 213.505 224.135C213.594 224.473 213.741 224.751 213.944 224.968C214.147 225.184 214.431 225.292 214.795 225.292C215.168 225.292 215.449 225.187 215.64 224.981C215.831 224.773 215.926 224.473 215.926 224.085C215.926 223.618 215.82 223.244 215.607 222.96C215.396 222.676 215.13 222.391 214.807 222.102L213.079 220.577C212.741 220.281 212.49 219.957 212.329 219.605C212.168 219.253 212.087 218.82 212.087 218.302C212.087 217.549 212.304 216.963 212.735 216.548C213.167 216.132 213.757 215.926 214.501 215.926C214.908 215.926 215.265 215.979 215.575 216.085C215.884 216.191 216.143 216.353 216.351 216.573C216.558 216.794 216.724 217.071 216.848 217.406C216.97 217.741 217.053 218.132 217.095 218.582L215.875 218.912C215.85 218.574 215.799 218.263 215.723 217.979C215.647 217.695 215.514 217.465 215.322 217.293C215.131 217.12 214.858 217.032 214.503 217.032C214.147 217.032 213.869 217.127 213.67 217.318C213.47 217.509 213.372 217.79 213.372 218.163C213.372 218.476 213.425 218.735 213.531 218.939C213.637 219.142 213.809 219.35 214.045 219.561L215.787 221.086C216.177 221.425 216.52 221.83 216.817 222.301C217.113 222.771 217.261 223.328 217.261 223.972C217.261 224.481 217.155 224.919 216.943 225.287C216.731 225.657 216.44 225.938 216.072 226.132C215.704 226.327 215.278 226.424 214.795 226.424Z" fill="#2F243A"/>
<path d="M220.811 226.424C220.218 226.424 219.725 226.297 219.33 226.043C218.936 225.789 218.638 225.437 218.435 224.988C218.231 224.539 218.113 224.017 218.078 223.424L219.349 223.081C219.375 223.446 219.432 223.797 219.52 224.135C219.609 224.473 219.757 224.751 219.96 224.968C220.163 225.184 220.447 225.292 220.811 225.292C221.184 225.292 221.465 225.187 221.655 224.981C221.846 224.773 221.941 224.473 221.941 224.085C221.941 223.618 221.836 223.244 221.623 222.96C221.412 222.676 221.146 222.391 220.822 222.102L219.095 220.577C218.756 220.281 218.506 219.957 218.344 219.605C218.184 219.253 218.103 218.82 218.103 218.302C218.103 217.549 218.319 216.963 218.751 216.548C219.183 216.132 219.772 215.926 220.517 215.926C220.923 215.926 221.281 215.979 221.591 216.085C221.9 216.191 222.159 216.353 222.367 216.573C222.574 216.794 222.74 217.071 222.862 217.406C222.985 217.741 223.068 218.132 223.109 218.582L221.889 218.912C221.864 218.574 221.813 218.263 221.737 217.979C221.661 217.695 221.528 217.465 221.337 217.293C221.147 217.12 220.872 217.032 220.517 217.032C220.162 217.032 219.884 217.127 219.684 217.318C219.485 217.509 219.386 217.79 219.386 218.163C219.386 218.476 219.44 218.735 219.545 218.939C219.651 219.142 219.823 219.35 220.06 219.561L221.801 221.086C222.191 221.425 222.534 221.83 222.831 222.301C223.127 222.771 223.276 223.328 223.276 223.972C223.276 224.481 223.17 224.919 222.957 225.287C222.746 225.657 222.455 225.938 222.088 226.132C221.719 226.327 221.294 226.424 220.811 226.424Z" fill="#2F243A"/>
<path d="M225.724 226.31L224.047 216.015H225.242L226.347 223.412L227.732 216.054H228.749L230.147 223.45L231.227 216.016H232.396L230.744 226.311H229.701L228.264 218.685L226.815 226.311H225.724V226.31Z" fill="#2F243A"/>
<path d="M236.19 226.424C235.495 226.424 234.94 226.289 234.524 226.018C234.108 225.746 233.813 225.359 233.634 224.855C233.456 224.351 233.367 223.759 233.367 223.082V219.18C233.367 218.503 233.457 217.92 233.64 217.432C233.822 216.945 234.118 216.572 234.53 216.313C234.941 216.055 235.494 215.926 236.189 215.926C236.884 215.926 237.435 216.056 237.841 216.32C238.247 216.583 238.542 216.956 238.725 217.438C238.907 217.922 238.998 218.501 238.998 219.18V223.094C238.998 223.764 238.908 224.348 238.725 224.848C238.543 225.348 238.249 225.735 237.841 226.011C237.436 226.286 236.885 226.424 236.19 226.424ZM236.19 225.293C236.571 225.293 236.86 225.215 237.054 225.058C237.248 224.901 237.38 224.681 237.448 224.397C237.516 224.113 237.55 223.781 237.55 223.399V218.887C237.55 218.506 237.516 218.178 237.448 217.903C237.38 217.627 237.248 217.416 237.054 217.267C236.859 217.12 236.571 217.045 236.19 217.045C235.809 217.045 235.519 217.12 235.319 217.267C235.119 217.416 234.986 217.627 234.919 217.903C234.851 218.178 234.818 218.506 234.818 218.887V223.399C234.818 223.781 234.851 224.113 234.919 224.397C234.986 224.681 235.119 224.901 235.319 225.058C235.519 225.215 235.81 225.293 236.19 225.293Z" fill="#2F243A"/>
<path d="M240.406 226.31V216.015H242.478C243.164 216.015 243.731 216.106 244.181 216.288C244.63 216.47 244.962 216.762 245.178 217.165C245.395 217.566 245.503 218.095 245.503 218.747C245.503 219.145 245.46 219.507 245.376 219.834C245.291 220.16 245.155 220.435 244.969 220.66C244.783 220.884 244.537 221.047 244.233 221.149L245.694 226.309H244.309L242.962 221.479H241.843V226.309L240.406 226.31ZM241.841 220.449H242.388C242.794 220.449 243.124 220.4 243.379 220.297C243.633 220.196 243.819 220.022 243.938 219.776C244.057 219.53 244.115 219.187 244.115 218.747C244.115 218.146 244.006 217.711 243.785 217.444C243.564 217.177 243.128 217.043 242.476 217.043H241.84V220.449H241.841Z" fill="#2F243A"/>
<path d="M247 226.31V216.015H249.237C250 216.015 250.603 216.131 251.049 216.364C251.494 216.597 251.811 216.946 252.001 217.412C252.193 217.879 252.288 218.458 252.288 219.153V222.941C252.288 223.669 252.193 224.283 252.001 224.783C251.81 225.283 251.501 225.662 251.074 225.921C250.646 226.179 250.071 226.309 249.351 226.309L247 226.31ZM248.435 225.28H249.249C249.774 225.28 250.147 225.178 250.367 224.975C250.588 224.771 250.721 224.474 250.767 224.085C250.813 223.695 250.837 223.225 250.837 222.673V219.33C250.837 218.797 250.804 218.365 250.736 218.034C250.669 217.704 250.52 217.463 250.291 217.31C250.063 217.158 249.702 217.081 249.211 217.081H248.435V225.28Z" fill="#2F243A"/>
<path d="M110.649 435.218L101.449 483.14L86.7229 526.956L83.0852 533.803C83.0852 533.803 79.0199 539.793 78.5922 544.286C78.1645 548.779 82.4437 551.346 85.6525 549.848C88.8613 548.35 90.5732 542.146 91.2147 539.365C91.8562 536.584 93.1405 531.663 93.5681 529.951C93.9958 528.239 94.8524 526.956 94.8524 526.956C94.8524 526.956 120.276 484.637 120.276 483.354C120.276 482.071 132.257 450.835 132.257 450.835L134.61 451.049L141.67 485.922L121.987 526.784C121.987 526.784 115.784 534.058 116.211 534.914C116.639 535.769 120.063 539.193 121.346 540.048C122.629 540.903 127.336 548.391 130.76 549.248C134.182 550.103 135.467 550.96 134.825 548.179C134.183 545.398 132.258 541.118 131.83 539.835C131.402 538.551 130.554 529.604 130.554 529.604L160.07 490.628L156.219 442.492L110.649 435.218Z" fill="white" stroke="#2F243A" stroke-miterlimit="10" stroke-linecap="round" stroke-linejoin="round"/>
<path d="M123.982 539.866C122.535 538.78 119.189 535.32 117.068 533.079C116.47 533.977 116.093 534.683 116.208 534.915C116.636 535.77 120.059 539.194 121.343 540.049C122.626 540.904 127.333 548.392 130.756 549.249C133.043 549.82 134.37 550.386 134.811 549.874C127.867 548.05 125.827 541.249 123.982 539.866Z" fill="white" stroke="#2F243A" stroke-miterlimit="10" stroke-linecap="round" stroke-linejoin="round"/>
<path d="M89.6382 544.504C87.4036 546.748 84.7876 548.445 82.0113 547.612C78.7455 546.632 79.5272 541.716 80.3992 538.576C79.5414 540.394 78.7657 542.461 78.5922 544.286C78.1645 548.779 82.4437 551.346 85.6525 549.848C87.406 549.029 88.7092 546.807 89.6382 544.504Z" fill="white" stroke="#2F243A" stroke-miterlimit="10" stroke-linecap="round" stroke-linejoin="round"/>
<path d="M110.652 435.218L101.453 483.14L86.7266 526.956C86.7266 526.956 88.0417 531.654 93.8427 529.075C94.2858 527.824 94.8572 526.956 94.8572 526.956C94.8572 526.956 120.28 484.637 120.28 483.354C120.28 482.071 132.261 450.835 132.261 450.835L134.615 451.049L141.675 485.922L121.992 526.784C121.992 526.784 124.552 531.094 130.635 529.502L160.074 490.628L156.222 442.492L110.652 435.218Z" fill="#2F243A" stroke="#2F243A" stroke-miterlimit="10" stroke-linecap="round" stroke-linejoin="round"/>
<path d="M146.781 368.403L141.443 369.387L117 440.469C117 440.469 121.636 448.616 136.667 448.476C151.699 448.336 156.053 445.946 156.053 445.946L155.631 402.96L161.801 374.513C161.801 374.513 152.26 368.685 146.781 368.403Z" fill="white" stroke="#2F243A" stroke-miterlimit="10"/>
<path d="M174.32 348.879C174.32 348.879 174.32 355.409 173.983 356.309C173.646 357.21 171.956 358.448 171.956 359.236C171.956 360.025 173.87 363.176 173.533 363.965C173.195 364.752 169.818 365.653 169.818 365.653C169.818 365.653 167.003 371.169 165.653 371.732C164.302 372.295 159.012 369.593 159.012 369.593L155.973 378.937C155.973 378.937 154.622 381.526 149.556 380.738C144.491 379.95 142.69 378.036 142.465 376.799C142.241 375.561 141.678 375.222 142.352 373.871C143.028 372.521 144.041 369.593 144.041 369.593L150.457 356.086L151.47 349.895C151.47 349.895 153.722 345.505 162.052 344.605C170.381 343.701 174.32 348.879 174.32 348.879Z" fill="white" stroke="#2F243A" stroke-miterlimit="10"/>
<path d="M165.656 363.287C165.656 363.287 165.882 365.314 168.471 365.989" stroke="#2F243A" stroke-miterlimit="10" stroke-linecap="round" stroke-linejoin="round"/>
<path d="M171.729 355.745C171.729 355.745 170.265 353.944 168.352 354.507" stroke="#2F243A" stroke-miterlimit="10" stroke-linecap="round" stroke-linejoin="round"/>
<path d="M170.028 358.427C169.908 359.005 169.489 359.407 169.094 359.325C168.698 359.243 168.475 358.707 168.595 358.128C168.715 357.55 169.133 357.148 169.529 357.23C169.924 357.314 170.148 357.848 170.028 358.427Z" fill="#2F243A"/>
<path d="M159.015 369.591L155.75 366.664L158.114 372.743L159.015 369.591Z" fill="#2F243A" stroke="#2F243A" stroke-miterlimit="10" stroke-linecap="round" stroke-linejoin="round"/>
<path d="M156.761 354.282C156.761 354.282 161.377 352.705 162.615 351.918C163.852 351.13 162.164 348.54 163.178 347.64C164.191 346.739 168.581 346.289 170.945 347.077C173.309 347.864 173.422 349.665 175.673 349.328C177.924 348.991 180.739 347.19 179.501 344.038C178.263 340.886 174.548 338.185 171.509 337.847C168.47 337.51 165.318 338.297 161.378 337.847C157.438 337.397 153.385 335.933 151.247 340.211C149.108 344.489 147.307 349.105 148.095 351.356C148.882 353.607 149.221 356.422 150.122 356.872C151.02 357.322 156.761 354.282 156.761 354.282Z" fill="#2F243A" stroke="#2F243A" stroke-miterlimit="10"/>
<path d="M157.319 355.858C157.319 355.858 156.868 350.455 154.504 351.468C152.14 352.482 152.366 357.659 153.83 358.672C155.293 359.686 156.531 358.109 156.531 358.109" fill="white"/>
<path d="M157.319 355.858C157.319 355.858 156.868 350.455 154.504 351.468C152.14 352.482 152.366 357.659 153.83 358.672C155.293 359.686 156.531 358.109 156.531 358.109" stroke="#2F243A" stroke-miterlimit="10"/>
<path d="M140.771 379.384L118.258 452.44C118.258 452.44 112.404 447.824 109.14 444.673C105.875 441.521 105.087 440.62 105.087 440.62L113.192 422.722L114.656 416.982L90.9038 432.74L86.8516 424.748L107.001 406.737C107.001 406.737 119.384 372.404 120.171 371.954C120.959 371.504 143.473 368.465 143.473 368.465L140.771 379.384Z" fill="#B2B2B2" stroke="#2F243A" stroke-miterlimit="10"/>
<path d="M145.616 366.551C145.616 366.551 142.238 365.651 140.55 367.339C138.862 369.027 132.67 377.921 134.247 378.821C135.823 379.722 140.1 377.357 140.1 377.357L140.775 379.384L145.616 366.551Z" fill="white" stroke="#2F243A" stroke-miterlimit="10"/>
<path d="M121.973 383.324L114.656 416.981" stroke="#2F243A" stroke-miterlimit="10" stroke-linecap="round" stroke-linejoin="round"/>
<path d="M134.022 392.442L122.651 391.09L121.977 394.805L133.459 396.831L134.022 394.805" stroke="#2F243A" stroke-miterlimit="10" stroke-linecap="round" stroke-linejoin="round"/>
<path d="M121.002 387.488C121.002 387.488 119.799 380.8 119.531 377.189" stroke="#2F243A" stroke-miterlimit="10" stroke-linecap="round" stroke-linejoin="round"/>
<path d="M120.336 388.96C120.336 388.96 118.33 385.616 116.992 383.477" stroke="#2F243A" stroke-miterlimit="10" stroke-linecap="round" stroke-linejoin="round"/>
<path d="M155.968 378.934C155.968 378.934 150.431 402.203 150.565 409.291C150.699 416.38 152.571 453.966 152.571 453.966C152.571 453.966 159.794 452.628 160.998 452.227C162.201 451.825 166.883 450.355 166.883 450.355C166.883 450.355 158.724 423.871 158.724 422.934C158.724 421.998 160.195 415.711 160.195 415.711C160.195 415.711 165.01 426.546 165.679 427.348C166.347 428.151 184.771 436.456 184.771 436.456L186.41 426.679L174.774 415.979C174.774 415.979 172.233 395.781 172.233 394.176C172.233 392.571 172.902 382.406 172.902 382.406L158.323 370.902L155.968 378.934Z" fill="#B2B2B2" stroke="#2F243A" stroke-miterlimit="10"/>
<path d="M200.555 433.165C200.555 433.165 194.719 434.437 193.222 434.587C191.725 434.737 188.883 434.437 187.611 433.988C186.339 433.539 183.87 432.566 183.87 432.566C183.87 432.566 183.346 431.071 183.721 430.247C184.095 429.424 186.115 429.499 186.115 429.499L198.758 430.771L200.555 433.165Z" fill="white" stroke="#2F243A" stroke-miterlimit="10"/>
<path d="M166.75 391.904L160.195 415.713" stroke="#2F243A" stroke-miterlimit="10" stroke-linecap="round" stroke-linejoin="round"/>
<path d="M163.137 398.191L155.245 396.185L154.844 399.395L161.799 401.267" stroke="#2F243A" stroke-miterlimit="10" stroke-linecap="round" stroke-linejoin="round"/>
<path d="M164.203 402.07L168.216 396.317" stroke="#2F243A" stroke-miterlimit="10" stroke-linecap="round" stroke-linejoin="round"/>
<path d="M155.383 382.674L156.854 381.203C156.854 381.203 160.198 385.082 160.867 383.878C161.535 382.675 162.873 379.598 161.803 374.516C160.732 369.433 159.01 369.591 159.01 369.591L155.971 378.935L155.383 382.674Z" fill="white" stroke="#2F243A" stroke-miterlimit="10"/>
<path d="M230.4 436.634L223.374 484.131L207.254 530.381C207.254 530.381 201.688 536.331 200.153 543.048C198.618 549.765 203.032 550.148 205.335 548.421C207.637 546.694 213.203 531.917 213.396 531.149C213.588 530.381 237.576 489.505 237.96 488.928C238.344 488.352 249.859 454.769 249.859 454.769L258.303 487.777L275.767 535.755C275.767 535.755 276.918 544.006 279.797 547.269C282.675 550.531 286.897 552.834 287.665 549.956C288.432 547.077 287.856 542.088 285.746 539.784C283.635 537.481 280.373 532.684 280.373 532.684L274.232 483.171L270.428 436.861L230.4 436.634Z" fill="white" stroke="#2F243A" stroke-miterlimit="10"/>
<path d="M274.234 483.172L270.43 436.862L230.404 436.635L223.378 484.132L210.641 520.676L218.04 522.969C225.082 510.806 237.685 489.346 237.962 488.931C238.346 488.354 249.861 454.771 249.861 454.771L258.306 487.779L272.152 525.818L279.227 523.434L274.234 483.172Z" fill="#2F243A" stroke="#2F243A" stroke-miterlimit="10"/>
<path d="M205.335 548.421C206.53 547.524 208.605 543.112 210.35 538.967L206.294 543.622L201.497 542.279L202.328 537.426C201.417 539.145 200.607 541.059 200.153 543.046C198.618 549.764 203.032 550.148 205.335 548.421Z" fill="#2F243A" stroke="#2F243A" stroke-miterlimit="10"/>
<path d="M287.667 549.957C288.435 547.079 287.858 542.089 285.748 539.785C285.604 539.626 285.452 539.454 285.297 539.275L286.325 545.735L282.486 547.079L276.391 539.005C277.005 541.684 278.101 545.345 279.8 547.27C282.678 550.532 286.9 552.836 287.667 549.957Z" fill="#2F243A" stroke="#2F243A" stroke-miterlimit="10"/>
<path d="M230.398 436.634C230.398 436.634 238.646 451.21 250.092 451.867C261.538 452.526 270.425 436.861 270.425 436.861L231.147 435.29L230.398 436.634Z" fill="white" stroke="#2F243A" stroke-miterlimit="10"/>
<path d="M243.363 381.372C243.363 381.372 230.514 387.626 230.4 388.422C230.286 389.218 221.661 423.633 221.661 423.633C221.661 423.633 218.584 430.508 222.45 432.669C226.315 434.83 233.242 427.652 233.242 427.652L230.4 436.635C230.4 436.635 239.545 441.227 251.99 441.865C261.556 442.356 270.425 436.862 270.425 436.862L269.059 427.425C269.059 427.425 277.044 432.799 279.887 431.548C282.73 430.298 284.866 427.766 284.866 426.061C284.866 424.356 283.501 423.9 281.227 421.399C278.953 418.897 275.2 406.503 275.2 406.503C275.2 406.503 272.016 389.447 271.22 388.082C270.425 386.717 260.532 382.282 260.532 382.282L243.363 381.372Z" fill="#B2B2B2" stroke="#2F243A" stroke-miterlimit="10"/>
<path d="M235.357 395.164L237.594 402.006L233.242 427.652" stroke="#2F243A" stroke-miterlimit="10"/>
<path d="M269.041 396.347L267.461 401.741L269.062 427.424" stroke="#2F243A" stroke-miterlimit="10"/>
<path d="M231.414 433.187C231.414 433.187 250.755 439.108 269.963 433.713" stroke="#2F243A" stroke-miterlimit="10"/>
<path d="M88.2878 415.185C88.2878 415.185 84.7701 415.938 84.0169 416.316C83.2637 416.692 83.1378 418.2 82.1327 418.828C81.1277 419.457 79.6201 420.336 80.4992 420.964C81.3783 421.593 83.2138 422.06 84.1179 420.82C85.0219 419.583 87.2898 418.534 87.6641 418.681" fill="white"/>
<path d="M88.2878 415.185C88.2878 415.185 84.7701 415.938 84.0169 416.316C83.2637 416.692 83.1378 418.2 82.1327 418.828C81.1277 419.457 79.6201 420.336 80.4992 420.964C81.3783 421.593 83.2138 422.06 84.1179 420.82C85.0219 419.583 87.2898 418.534 87.6641 418.681" stroke="#2F243A" stroke-miterlimit="10"/>
<path d="M215.952 432.449C215.952 432.449 214.614 432.371 213.826 431.741C213.039 431.112 211.779 430.875 211.071 430.718C210.363 430.56 210.598 429.931 211.622 429.537C212.647 429.144 214.535 429.301 215.48 429.695C216.424 430.09 216.897 430.561 216.897 430.561L215.952 432.449Z" fill="white" stroke="#2F243A" stroke-miterlimit="10"/>
<path d="M386.14 420.233H169.57V430.236H386.14V420.233Z" fill="#F8B09B" stroke="#2F243A" stroke-miterlimit="10"/>
<path d="M130.559 380.286C105.734 380.286 85.6094 400.411 85.6094 425.235C85.6094 450.06 105.734 470.185 130.559 470.185C155.383 470.185 175.508 450.06 175.508 425.235C175.508 400.411 155.384 380.286 130.559 380.286ZM130.559 458.423C112.23 458.423 97.3706 443.565 97.3706 425.235C97.3706 406.906 112.229 392.047 130.559 392.047C148.887 392.047 163.747 406.906 163.747 425.235C163.747 443.565 148.888 458.423 130.559 458.423Z" fill="#F8B09B" stroke="#2F243A" stroke-miterlimit="10"/>
<path d="M347.203 420.233V467.145H356.429C356.427 467.058 356.416 466.974 356.416 466.886C356.416 460.87 361.293 455.993 367.309 455.993C373.325 455.993 378.202 460.87 378.202 466.886C378.202 466.973 378.191 467.058 378.189 467.145H386.142V420.233H347.203Z" fill="#F8B09B" stroke="#2F243A" stroke-miterlimit="10"/>
<path d="M296.586 420.233V447.157H301.881C301.88 447.107 301.874 447.058 301.874 447.009C301.874 443.556 304.673 440.756 308.125 440.756C311.577 440.756 314.376 443.555 314.376 447.009C314.376 447.058 314.37 447.107 314.369 447.157H318.933V420.233H296.586Z" fill="#F8B09B" stroke="#2F243A" stroke-miterlimit="10"/>
<path d="M259.068 345.963C259.068 345.963 262.19 343.408 260.772 340.854C259.352 338.298 253.107 334.513 250.552 335.46C247.997 336.407 242.982 341.706 242.604 343.693C242.225 345.681 246.2 348.425 246.956 348.519C247.713 348.613 254.149 344.828 259.068 345.963Z" fill="#2F243A" stroke="#2F243A" stroke-miterlimit="10"/>
<path d="M252.921 345.112C252.921 345.112 242.702 347.95 239.862 353.438C237.024 358.927 236.834 360.157 238.443 362.806C240.051 365.455 244.025 370.187 247.716 372.079C251.406 373.972 263.14 371.228 263.14 371.228C263.14 371.228 266.736 369.619 267.871 366.78C269.006 363.942 271.561 359.967 269.858 355.709C268.155 351.451 260.585 345.585 258.219 344.922C255.854 344.26 252.921 345.112 252.921 345.112Z" fill="#2F243A" stroke="#2F243A" stroke-miterlimit="10"/>
<path d="M260.356 352.292C260.356 352.292 255.259 355.428 252.645 357.258C250.032 359.087 246.896 360.133 246.896 360.133C246.896 360.133 244.543 361.178 245.066 363.923C245.589 366.667 246.578 376.148 246.578 376.148L244.805 379.997L252.384 388.361L258.395 380.52L259.049 376.469C259.049 376.469 264.537 373.071 264.668 372.287C264.799 371.503 266.367 360.003 266.236 358.826C266.106 357.65 260.356 352.292 260.356 352.292Z" fill="white" stroke="#2F243A" stroke-miterlimit="10"/>
<path d="M261.248 360.347C261.248 360.347 260.964 362.902 260.964 363.28C260.964 363.658 263.235 365.645 262.384 366.402C261.532 367.159 259.828 367.633 259.828 367.633" stroke="#2F243A" stroke-miterlimit="10" stroke-linecap="round" stroke-linejoin="round"/>
<path d="M260.114 369.998C260.114 369.998 259.169 371.039 257.086 368.862" stroke="#2F243A" stroke-miterlimit="10" stroke-linecap="round" stroke-linejoin="round"/>
<path d="M259.055 376.469C259.055 376.469 256.897 376.243 256.047 375.675C255.195 375.107 252.734 373.215 252.734 373.215L257.56 381.542L258.401 380.52L259.055 376.469Z" fill="#2F243A" stroke="#2F243A" stroke-miterlimit="10" stroke-linecap="round" stroke-linejoin="round"/>
<path d="M247.906 362.617C247.906 362.617 246.109 357.224 244.026 360.252C241.945 363.28 245.257 367.538 246.865 367.443" fill="white"/>
<path d="M247.906 362.617C247.906 362.617 246.109 357.224 244.026 360.252C241.945 363.28 245.257 367.538 246.865 367.443" stroke="#2F243A" stroke-miterlimit="10"/>
<path d="M256.562 363.469C257.006 363.469 257.366 362.96 257.366 362.333C257.366 361.706 257.006 361.197 256.562 361.197C256.118 361.197 255.758 361.706 255.758 362.333C255.758 362.96 256.118 363.469 256.562 363.469Z" fill="#2F243A"/>
<path d="M263.664 363.469C264.108 363.469 264.468 362.96 264.468 362.333C264.468 361.706 264.108 361.197 263.664 361.197C263.219 361.197 262.859 361.706 262.859 362.333C262.859 362.96 263.219 363.469 263.664 363.469Z" fill="#2F243A"/>
<path d="M254.438 359.873C254.438 359.873 256.141 358.169 258.411 359.494" stroke="#2F243A" stroke-miterlimit="10" stroke-linecap="round" stroke-linejoin="round"/>
<path d="M262.102 359.305C262.102 359.305 264.657 358.264 265.224 360.251" stroke="#2F243A" stroke-miterlimit="10" stroke-linecap="round" stroke-linejoin="round"/>
<path d="M244.786 377.095L251.41 385.516L246.869 390.436L241.758 381.257L244.786 377.095Z" fill="white" stroke="#2F243A" stroke-miterlimit="10"/>
<path d="M251.411 385.517L252.391 388.361L250.086 387.219L251.411 385.517Z" fill="white" stroke="#2F243A" stroke-miterlimit="10"/>
<path d="M253.773 384.097L256.991 390.436L261.911 382.109L258.599 379.46L253.773 384.097Z" fill="white" stroke="#2F243A" stroke-miterlimit="10"/>
<path d="M253.776 384.097L252.391 388.36L254.721 386.084L253.776 384.097Z" fill="white" stroke="#2F243A" stroke-miterlimit="10"/>
<path d="M216.289 427.709C216.289 427.709 214.949 431.529 215.324 432.054C215.717 432.605 217.005 433.261 217.363 432.008C217.72 430.754 218.079 427.961 217.607 427.174C217.136 426.387 216.289 427.709 216.289 427.709Z" fill="white" stroke="#2F243A" stroke-miterlimit="10"/>
<path d="M218.414 428.89C218.414 428.89 217.074 432.709 217.449 433.235C217.842 433.786 219.13 434.442 219.488 433.188C219.845 431.935 220.204 429.141 219.731 428.354C219.261 427.568 218.414 428.89 218.414 428.89Z" fill="white" stroke="#2F243A" stroke-miterlimit="10"/>
<path d="M221.171 428.733C221.171 428.733 219.832 432.553 220.207 433.078C220.6 433.629 221.888 434.285 222.245 433.031C222.603 431.778 222.962 428.984 222.49 428.198C222.018 427.41 221.171 428.733 221.171 428.733Z" fill="white" stroke="#2F243A" stroke-miterlimit="10"/>
<path d="M223.36 429.415C223.36 429.415 222.343 432.655 222.629 433.102C222.927 433.569 223.904 434.126 224.177 433.063C224.449 431.999 224.721 429.629 224.362 428.962C224.003 428.293 223.36 429.415 223.36 429.415Z" fill="white" stroke="#2F243A" stroke-miterlimit="10"/>
<path d="M86.6682 421.898C86.6682 421.898 82.6445 421.13 82.2821 421.743C81.9032 422.386 81.7333 424.202 83.0258 424.35C84.3184 424.497 87.0484 424.26 87.621 423.456C88.1936 422.655 86.6682 421.898 86.6682 421.898Z" fill="white" stroke="#2F243A" stroke-miterlimit="10"/>
<path d="M86.2936 424.921C86.2936 424.921 82.2698 424.153 81.9075 424.768C81.5285 425.41 81.3574 427.227 82.6512 427.374C83.9437 427.521 86.6737 427.284 87.2464 426.481C87.819 425.678 86.2936 424.921 86.2936 424.921Z" fill="white" stroke="#2F243A" stroke-miterlimit="10"/>
<path d="M87.387 428.421C87.387 428.421 83.3632 427.653 83.0009 428.268C82.6219 428.91 82.452 430.727 83.7446 430.874C85.0371 431.021 87.7671 430.784 88.3398 429.981C88.9124 429.178 87.387 428.421 87.387 428.421Z" fill="white" stroke="#2F243A" stroke-miterlimit="10"/>
<path d="M87.5043 431.406C87.5043 431.406 84.1316 430.908 83.8132 431.386C83.4794 431.886 83.2953 433.281 84.3811 433.364C85.4669 433.447 87.7716 433.206 88.2718 432.579C88.7731 431.951 87.5043 431.406 87.5043 431.406Z" fill="white" stroke="#2F243A" stroke-miterlimit="10"/>
<path d="M286.107 427.709C286.107 427.709 287.447 431.529 287.072 432.054C286.678 432.605 285.391 433.261 285.033 432.008C284.674 430.754 284.317 427.961 284.789 427.174C285.26 426.387 286.107 427.709 286.107 427.709Z" fill="white" stroke="#2F243A" stroke-miterlimit="10"/>
<path d="M283.982 428.89C283.982 428.89 285.322 432.709 284.946 433.235C284.553 433.786 283.265 434.442 282.908 433.188C282.55 431.935 282.191 429.141 282.664 428.354C283.135 427.568 283.982 428.89 283.982 428.89Z" fill="white" stroke="#2F243A" stroke-miterlimit="10"/>
<path d="M281.224 428.733C281.224 428.733 282.563 432.553 282.189 433.078C281.796 433.629 280.508 434.285 280.15 433.031C279.793 431.778 279.434 428.984 279.905 428.198C280.377 427.41 281.224 428.733 281.224 428.733Z" fill="white" stroke="#2F243A" stroke-miterlimit="10"/>
<path d="M279.033 429.415C279.033 429.415 280.05 432.655 279.765 433.102C279.465 433.569 278.489 434.126 278.217 433.063C277.945 431.999 277.673 429.629 278.031 428.962C278.39 428.293 279.033 429.415 279.033 429.415Z" fill="white" stroke="#2F243A" stroke-miterlimit="10"/>
<path d="M184.777 436.457L183.43 430.322" stroke="#2F243A" stroke-miterlimit="10"/>
<path d="M194.255 434.11L201.906 433.017L205.483 429.938C205.483 429.938 206.775 425.864 206.973 425.368C207.171 424.871 206.775 423.878 205.78 424.175C204.787 424.473 204.489 425.963 204.489 425.963C204.489 425.963 203.694 423.181 202.899 423.777C202.104 424.374 202.005 425.168 202.005 425.168C202.005 425.168 200.713 423.579 200.117 424.075C199.521 424.572 199.322 426.063 199.322 426.063C199.322 426.063 197.831 424.87 197.335 425.566C196.838 426.261 197.335 427.454 197.335 427.454L197.931 429.838L196.938 430.037L192.766 430.235" fill="white"/>
<path d="M194.255 434.11L201.906 433.017L205.483 429.938C205.483 429.938 206.775 425.864 206.973 425.368C207.171 424.871 206.775 423.878 205.78 424.175C204.787 424.473 204.489 425.963 204.489 425.963C204.489 425.963 203.694 423.181 202.899 423.777C202.104 424.374 202.005 425.168 202.005 425.168C202.005 425.168 200.713 423.579 200.117 424.075C199.521 424.572 199.322 426.063 199.322 426.063C199.322 426.063 197.831 424.87 197.335 425.566C196.838 426.261 197.335 427.454 197.335 427.454L197.931 429.838L196.938 430.037L192.766 430.235" stroke="#2F243A" stroke-miterlimit="10"/>
<path d="M202.005 425.168C202.005 425.168 202.832 428.238 202.947 428.582C203.062 428.928 202.303 432.618 201.906 433.017" stroke="#2F243A" stroke-miterlimit="10"/>
<path d="M204.492 425.963C204.492 425.963 205.425 428.928 204.964 430.136" stroke="#2F243A" stroke-miterlimit="10"/>
<path d="M199.32 426.062L200.643 428.696C200.643 428.696 200.586 432.034 200.125 432.897" stroke="#2F243A" stroke-miterlimit="10"/>
<path d="M197.93 429.837L197.996 431.114" stroke="#2F243A" stroke-miterlimit="10"/>
<path d="M193.168 430.424C193.168 430.424 192.017 431.46 192.996 432.84" stroke="#2F243A" stroke-miterlimit="10"/>
</svg>
