<svg width="1387" height="1064" viewBox="0 0 1387 1064" fill="none" xmlns="http://www.w3.org/2000/svg">
<g opacity="0.25">
<path d="M1257.28 0C1253.7 276.107 1159.78 535.503 805.148 491.243C431.289 444.537 250.489 752.244 159.852 1064H159.414C250.088 752.025 430.997 444.063 805.221 490.805C1159.41 535.029 1253.26 275.888 1256.84 0H1257.28Z" fill="url(#paint0_linear_1469_124866)"/>
<path d="M1243.41 0C1259.75 263.811 1179.12 509.45 808.102 477.413C403.373 442.458 233.885 752.827 157.551 1064H157.113C233.483 752.608 403.081 441.983 808.138 476.976C1178.71 508.976 1259.28 263.592 1242.97 0H1243.41Z" fill="url(#paint1_linear_1469_124866)"/>
<path d="M1232.21 0C1266.72 251.587 1197.18 483.799 811.022 463.584C374.548 440.706 217.94 753.448 156.457 1064H156.02C217.502 753.229 374.183 440.232 811.058 463.147C1196.74 483.325 1266.25 251.368 1231.73 0H1232.21Z" fill="url(#paint2_linear_1469_124866)"/>
<path d="M1223.74 0C1274.61 239.364 1213.82 458.622 813.977 449.755C344.701 439.32 202.652 754.104 156.567 1064H156.129C202.214 753.886 344.336 438.882 813.977 449.317C1213.34 458.184 1274.1 239.145 1223.27 0H1223.74Z" fill="url(#paint3_linear_1469_124866)"/>
<path d="M1218.2 0C1283.29 227.213 1228.96 433.956 816.896 435.926C313.795 438.334 188.093 754.725 157.953 1064H157.516C187.655 754.542 313.43 437.897 816.933 435.488C1228.45 433.518 1282.74 226.994 1217.68 0H1218.2Z" fill="url(#paint4_linear_1469_124866)"/>
<path d="M1215.46 0C1292.6 215.135 1242.43 409.801 819.854 422.097C281.797 437.751 174.448 755.345 160.692 1064H160.254C174.01 755.163 281.432 437.313 819.854 421.659C1241.88 409.399 1292.01 214.916 1214.95 0H1215.46Z" fill="url(#paint5_linear_1469_124866)"/>
<path d="M1215.82 0C1302.56 203.167 1254.17 386.266 822.772 408.268C248.664 437.568 161.786 755.892 164.887 1064H164.449C161.348 755.71 248.263 437.167 822.772 407.83C1253.59 385.864 1301.9 202.948 1215.28 0H1215.82Z" fill="url(#paint6_linear_1469_124866)"/>
<path d="M1219.25 0C1312.96 191.345 1264.03 363.314 825.728 394.439C245.855 435.634 158.356 724.221 168.172 1016.35C168.719 1032.22 169.558 1048.13 170.58 1064H170.142C169.12 1048.13 168.281 1032.26 167.734 1016.38C157.882 724.038 245.454 435.196 825.728 394.001C1263.44 362.913 1312.3 191.126 1218.67 0H1219.25Z" fill="url(#paint7_linear_1469_124866)"/>
<path d="M1225.57 0C1323.5 179.705 1271.87 341.056 828.685 380.61C246.732 432.533 154.855 692.914 169.122 967.415C170.8 999.525 173.938 1031.82 177.879 1064H177.441C173.464 1031.82 170.362 999.562 168.684 967.452C154.38 692.731 246.367 432.131 828.648 380.172C1271.25 340.692 1322.81 179.523 1224.95 0H1225.57Z" fill="url(#paint8_linear_1469_124866)"/>
<path d="M1234.84 0C1334.05 168.284 1277.56 319.565 831.604 366.781C247.389 428.702 150.403 665.474 168.136 923.118C171.347 969.714 178.317 1016.97 186.818 1064H186.344C177.879 1016.97 170.909 969.751 167.698 923.155C149.965 665.292 246.988 428.3 831.567 366.343C1276.91 319.164 1333.32 168.102 1234.18 0H1234.84Z" fill="url(#paint9_linear_1469_124866)"/>
<path d="M1246.91 0C1344.37 157.119 1280.99 298.803 834.556 352.952C247.532 424.177 145.182 641.283 165.579 883.164C170.578 942.53 182.984 1003.43 197.433 1064H196.959C182.546 1003.43 170.14 942.603 165.141 883.237C144.708 641.1 247.13 423.776 834.52 352.55C1280.33 298.438 1343.6 156.936 1246.22 0L1246.91 0Z" fill="url(#paint10_linear_1469_124866)"/>
<path d="M1261.25 0C1353.86 146.245 1282.01 278.917 837.476 339.159C247.168 419.142 139.272 619.791 161.712 847.15C168.645 917.791 188.203 991.023 209.768 1064H209.33C187.765 991.023 168.207 917.828 161.275 847.186C138.834 619.609 246.767 418.74 837.44 338.721C1281.32 278.552 1353.02 146.099 1260.52 0L1261.25 0Z" fill="url(#paint11_linear_1469_124866)"/>
<path d="M1277.82 0C1362.51 135.773 1280.55 259.906 840.432 325.33C246.293 413.632 132.777 600.525 156.75 814.566C165.763 895.132 194.224 979.566 223.889 1064H223.414C193.786 979.566 165.325 895.168 156.312 814.602C132.34 600.379 245.891 413.23 840.359 324.892C1279.86 259.578 1361.63 135.591 1277.05 0L1277.82 0Z" fill="url(#paint12_linear_1469_124866)"/>
<path d="M1295.73 0C1369.47 125.702 1276.54 241.845 843.35 311.501C244.868 407.757 125.806 583.12 150.874 784.974C161.529 870.721 198.199 961.285 235.162 1052.58L239.76 1064H239.285L234.724 1052.76C197.761 961.431 161.091 870.867 150.436 785.047C125.332 582.938 244.43 407.356 843.313 311.063C1275.81 241.516 1368.6 125.556 1294.93 0H1295.73Z" fill="url(#paint13_linear_1469_124866)"/>
<path d="M1314.41 0C1374.51 116.106 1269.86 224.732 846.306 297.672C242.935 401.554 118.4 567.211 144.27 757.972C155.801 843.063 197.251 933.116 239.468 1024.92C245.452 1037.91 251.436 1050.94 257.384 1064H256.873C250.999 1051.01 245.015 1038.06 239.067 1025.1C196.813 933.299 155.363 843.173 143.832 758.045C117.926 567.065 242.497 401.189 846.233 297.234C1269.13 224.403 1373.6 115.96 1313.58 0L1314.41 0Z" fill="url(#paint14_linear_1469_124866)"/>
<path d="M1332.99 0C1377.14 107.02 1260.63 208.64 849.226 283.843C240.527 395.096 110.592 552.579 137.01 733.233C149.343 817.302 195.464 906.407 243.009 998.211C254.32 1019.99 265.668 1041.96 276.651 1064H276.176C265.193 1042.03 253.882 1020.14 242.644 998.43C195.063 906.589 148.905 817.448 136.572 733.343C110.118 552.397 240.126 394.731 849.153 283.405C1259.87 208.348 1376.19 106.874 1332.08 0L1332.99 0Z" fill="url(#paint15_linear_1469_124866)"/>
<path d="M1350.25 0C1376.63 98.482 1248.85 193.571 852.18 270.014C237.717 388.382 102.418 538.969 129.237 710.464C142.227 793.293 192.982 881.047 245.853 972.451C263.258 1002.59 280.955 1033.13 297.557 1064H297.047C280.481 1033.2 262.857 1002.74 245.452 972.67C192.58 881.266 141.789 793.475 128.799 710.537C101.943 538.787 237.279 388.017 852.107 269.576C1248.12 193.279 1375.64 98.3361 1349.33 0L1350.25 0Z" fill="url(#paint16_linear_1469_124866)"/>
<path d="M1365.46 0C1372.91 90.5641 1234.76 179.523 855.102 256.185C234.509 381.522 93.9921 526.198 121.03 689.338C134.531 770.816 189.811 856.892 247.973 947.456C272.42 985.514 297.342 1024.37 319.928 1064H319.417C296.867 1024.45 271.982 985.696 247.608 947.712C189.409 857.111 134.129 770.962 120.592 689.411C93.5178 526.052 234.071 381.157 855.029 255.747C1234 179.231 1371.96 90.4181 1364.52 0L1365.46 0Z" fill="url(#paint17_linear_1469_124866)"/>
<path d="M1377.25 0C1365.57 83.2299 1218.56 166.423 858.02 242.356C230.931 374.48 85.2697 514.194 112.417 669.671C126.392 749.653 186.051 833.831 249.467 923.301C281.723 968.765 314.927 1015.62 343.607 1064H343.096C314.453 1015.73 281.285 968.948 249.102 923.556C185.649 834.05 125.954 749.835 111.979 669.78C84.7954 514.011 230.53 374.115 857.947 241.918C1217.79 166.131 1364.59 83.0839 1376.34 0H1377.25Z" fill="url(#paint18_linear_1469_124866)"/>
<path d="M1384.73 0C1354.37 76.4796 1200.57 154.2 860.976 228.526C227.064 367.292 76.2939 502.773 103.478 651.28C117.818 729.694 181.745 811.756 250.38 899.839C291.21 952.236 333.719 1006.82 368.42 1064H367.909C333.245 1006.9 290.809 952.455 250.015 900.094C181.38 811.975 117.416 729.876 103.04 651.39C75.8196 502.627 226.626 366.927 860.903 228.089C1199.81 153.908 1353.24 76.3701 1383.56 0L1384.73 0Z" fill="url(#paint19_linear_1469_124866)"/>
<path d="M1386.74 0C1339.12 70.313 1181.23 142.779 863.895 214.697C222.868 359.994 67.0995 491.899 94.2468 633.985C108.879 710.756 176.929 790.556 250.709 877.034C300.88 935.853 353.679 997.81 394.144 1064H393.597C353.205 997.92 300.479 936.072 250.344 877.326C176.564 790.812 108.477 710.975 93.8089 634.094C66.6251 491.753 222.467 359.629 863.822 214.26C1180.47 142.523 1338.02 70.1671 1385.64 0L1386.74 0Z" fill="url(#paint20_linear_1469_124866)"/>
<path d="M1383.81 0C1320.87 64.6208 1160.87 132.088 866.848 200.868C218.45 352.587 57.7192 481.464 84.7206 617.638C99.6443 692.804 171.672 770.196 250.487 854.849C310.729 919.579 374.876 988.542 420.523 1064H419.975C374.365 988.652 310.291 919.798 250.159 855.177C171.307 770.451 99.2429 693.023 84.3192 617.748C57.2449 481.318 218.013 352.222 866.775 200.467C1160.1 131.832 1319.78 64.5114 1382.65 0L1383.81 0Z" fill="url(#paint21_linear_1469_124866)"/>
<path d="M1374.55 0C1299.02 59.3665 1139.96 121.981 869.769 187.039C213.745 345.07 48.1972 471.429 75.0161 602.167C90.1223 675.655 166.018 750.602 249.759 833.284C320.692 903.342 397.245 978.946 447.38 1064H446.832C396.734 979.055 320.291 903.561 249.43 833.613C165.653 750.857 89.7209 675.91 74.5782 602.276C47.6863 471.283 213.343 344.705 869.696 186.638C1139.24 121.725 1298 59.2571 1373.45 0H1374.55Z" fill="url(#paint22_linear_1469_124866)"/>
<path d="M1359.73 0C1274.64 54.4771 1118.87 112.311 872.724 173.21C208.856 337.481 38.4551 461.723 65.0916 587.426C80.3437 659.271 159.925 731.664 248.555 812.267C330.8 887.068 420.78 968.911 474.418 1064H473.87C420.233 969.057 330.398 887.287 248.263 812.595C159.56 731.956 79.9424 659.527 64.6902 587.535C37.9808 461.577 208.454 337.116 872.615 172.809C1118.15 112.056 1273.51 54.3676 1358.49 0L1359.73 0Z" fill="url(#paint23_linear_1469_124866)"/>
<path d="M1338.97 0C1247.64 49.8796 1098 103.007 875.642 159.418C203.746 329.818 28.6018 452.309 55.0194 573.378C70.3445 643.581 153.501 713.383 246.912 791.76C340.979 870.721 445.372 958.403 501.418 1064H500.87C444.824 958.549 340.577 870.977 246.62 792.125C153.173 713.675 69.9431 643.837 54.5815 573.487C28.091 452.163 203.344 329.453 875.569 158.98C1097.31 102.751 1246.55 49.7336 1337.73 0L1338.97 0Z" fill="url(#paint24_linear_1469_124866)"/>
<path d="M1313.58 0C1219.11 45.4645 1077.57 93.921 878.6 145.588C198.494 322.083 18.5701 443.151 44.7688 559.877C60.1668 628.475 146.754 695.687 244.798 771.765C351.161 854.302 470.989 947.31 528.239 1064H527.692C470.478 947.456 350.796 854.557 244.542 772.13C146.425 695.979 59.7655 628.767 44.3309 559.987C18.0958 442.968 198.056 321.754 878.491 145.151C1076.88 93.6656 1218.05 45.3185 1312.34 0L1313.58 0Z" fill="url(#paint25_linear_1469_124866)"/>
<path d="M1284.57 0C1189.81 41.1588 1057.68 85.0543 881.517 131.759C193.019 314.311 8.46059 434.175 34.3673 546.887C49.8019 613.953 139.673 678.501 242.314 752.244C361.376 837.772 497.55 935.634 554.582 1064H554.071C497.039 935.816 361.011 838.064 242.059 752.609C139.344 678.829 49.4005 614.208 33.9659 547.033C7.94976 434.029 192.581 313.946 881.408 131.322C1056.99 84.7624 1188.75 41.0494 1283.33 0L1284.57 0Z" fill="url(#paint26_linear_1469_124866)"/>
<path d="M1251.62 0C1159.52 36.9627 1038.64 76.2241 884.475 117.93C187.438 306.466 -1.7904 425.418 23.8609 534.408C39.2955 599.905 132.341 661.862 239.398 733.124C371.558 821.134 524.992 923.337 580.418 1064H579.87C524.481 923.483 371.157 821.426 239.142 733.525C132.012 662.19 38.8941 600.16 23.423 534.518C-2.26475 425.272 187 306.137 884.365 117.492C1037.98 75.9322 1158.43 36.8532 1250.31 0H1251.62Z" fill="url(#paint27_linear_1469_124866)"/>
<path d="M1216.19 0C1129.05 32.803 1020.39 67.4304 887.392 104.101C181.671 298.584 -12.1554 416.843 13.2405 522.331C28.6385 586.295 124.712 645.661 236.148 714.478C293.325 749.762 354.516 787.601 410.927 829.781C498.098 895.023 573.774 970.736 605.556 1064H605.045C573.3 970.882 497.696 895.278 410.672 830.146C354.261 787.966 293.07 750.164 235.892 714.843C124.42 645.99 28.2372 586.587 12.8026 522.44C-12.6298 416.697 181.233 298.256 887.282 103.663C1019.73 67.175 1128 32.6571 1214.84 0L1216.19 0Z" fill="url(#paint28_linear_1469_124866)"/>
<path d="M1178.42 0C1098.51 28.6069 1003.06 58.6732 890.348 90.2721C175.797 290.666 -22.5898 408.414 2.51414 510.618C17.8757 573.122 116.869 629.862 232.5 696.198C302.12 736.116 377.797 779.5 444.899 829.672C531.084 894.183 603.112 969.933 630.004 1064H629.493C602.638 970.079 530.683 894.439 444.607 830.037C377.541 779.865 301.901 736.481 232.281 696.562C116.54 630.227 17.4744 573.414 2.07628 510.727C-23.1007 408.268 175.359 290.338 890.239 89.8343C1002.4 58.3813 1097.42 28.4609 1177.07 0L1178.42 0Z" fill="url(#paint29_linear_1469_124866)"/>
</g>
<defs>
<linearGradient id="paint0_linear_1469_124866" x1="159.414" y1="532" x2="1257.28" y2="532" gradientUnits="userSpaceOnUse">
<stop stop-color="#FE512E"/>
<stop offset="1" stop-color="#F09619"/>
</linearGradient>
<linearGradient id="paint1_linear_1469_124866" x1="157.113" y1="532" x2="1245.37" y2="532" gradientUnits="userSpaceOnUse">
<stop stop-color="#FE512E"/>
<stop offset="1" stop-color="#F09619"/>
</linearGradient>
<linearGradient id="paint2_linear_1469_124866" x1="156.02" y1="532" x2="1240.01" y2="532" gradientUnits="userSpaceOnUse">
<stop stop-color="#FE512E"/>
<stop offset="1" stop-color="#F09619"/>
</linearGradient>
<linearGradient id="paint3_linear_1469_124866" x1="156.129" y1="532" x2="1239.08" y2="532" gradientUnits="userSpaceOnUse">
<stop stop-color="#FE512E"/>
<stop offset="1" stop-color="#F09619"/>
</linearGradient>
<linearGradient id="paint4_linear_1469_124866" x1="157.516" y1="532" x2="1241.28" y2="532" gradientUnits="userSpaceOnUse">
<stop stop-color="#FE512E"/>
<stop offset="1" stop-color="#F09619"/>
</linearGradient>
<linearGradient id="paint5_linear_1469_124866" x1="160.254" y1="532" x2="1245.63" y2="532" gradientUnits="userSpaceOnUse">
<stop stop-color="#FE512E"/>
<stop offset="1" stop-color="#F09619"/>
</linearGradient>
<linearGradient id="paint6_linear_1469_124866" x1="164.371" y1="532" x2="1251.72" y2="532" gradientUnits="userSpaceOnUse">
<stop stop-color="#FE512E"/>
<stop offset="1" stop-color="#F09619"/>
</linearGradient>
<linearGradient id="paint7_linear_1469_124866" x1="167.031" y1="532" x2="1259.11" y2="532" gradientUnits="userSpaceOnUse">
<stop stop-color="#FE512E"/>
<stop offset="1" stop-color="#F09619"/>
</linearGradient>
<linearGradient id="paint8_linear_1469_124866" x1="167.34" y1="532" x2="1267.42" y2="532" gradientUnits="userSpaceOnUse">
<stop stop-color="#FE512E"/>
<stop offset="1" stop-color="#F09619"/>
</linearGradient>
<linearGradient id="paint9_linear_1469_124866" x1="165.789" y1="532" x2="1276.56" y2="532" gradientUnits="userSpaceOnUse">
<stop stop-color="#FE512E"/>
<stop offset="1" stop-color="#F09619"/>
</linearGradient>
<linearGradient id="paint10_linear_1469_124866" x1="162.77" y1="532" x2="1286.41" y2="532" gradientUnits="userSpaceOnUse">
<stop stop-color="#FE512E"/>
<stop offset="1" stop-color="#F09619"/>
</linearGradient>
<linearGradient id="paint11_linear_1469_124866" x1="158.57" y1="532" x2="1296.64" y2="532" gradientUnits="userSpaceOnUse">
<stop stop-color="#FE512E"/>
<stop offset="1" stop-color="#F09619"/>
</linearGradient>
<linearGradient id="paint12_linear_1469_124866" x1="153.375" y1="532" x2="1307.49" y2="532" gradientUnits="userSpaceOnUse">
<stop stop-color="#FE512E"/>
<stop offset="1" stop-color="#F09619"/>
</linearGradient>
<linearGradient id="paint13_linear_1469_124866" x1="147.352" y1="532" x2="1318.59" y2="532" gradientUnits="userSpaceOnUse">
<stop stop-color="#FE512E"/>
<stop offset="1" stop-color="#F09619"/>
</linearGradient>
<linearGradient id="paint14_linear_1469_124866" x1="140.672" y1="532" x2="1330.02" y2="532" gradientUnits="userSpaceOnUse">
<stop stop-color="#FE512E"/>
<stop offset="1" stop-color="#F09619"/>
</linearGradient>
<linearGradient id="paint15_linear_1469_124866" x1="133.391" y1="532" x2="1341.77" y2="532" gradientUnits="userSpaceOnUse">
<stop stop-color="#FE512E"/>
<stop offset="1" stop-color="#F09619"/>
</linearGradient>
<linearGradient id="paint16_linear_1469_124866" x1="125.625" y1="532" x2="1353.56" y2="532" gradientUnits="userSpaceOnUse">
<stop stop-color="#FE512E"/>
<stop offset="1" stop-color="#F09619"/>
</linearGradient>
<linearGradient id="paint17_linear_1469_124866" x1="117.461" y1="532" x2="1365.75" y2="532" gradientUnits="userSpaceOnUse">
<stop stop-color="#FE512E"/>
<stop offset="1" stop-color="#F09619"/>
</linearGradient>
<linearGradient id="paint18_linear_1469_124866" x1="108.91" y1="532" x2="1377.25" y2="532" gradientUnits="userSpaceOnUse">
<stop stop-color="#FE512E"/>
<stop offset="1" stop-color="#F09619"/>
</linearGradient>
<linearGradient id="paint19_linear_1469_124866" x1="100.043" y1="532" x2="1384.73" y2="532" gradientUnits="userSpaceOnUse">
<stop stop-color="#FE512E"/>
<stop offset="1" stop-color="#F09619"/>
</linearGradient>
<linearGradient id="paint20_linear_1469_124866" x1="90.8945" y1="532" x2="1386.74" y2="532" gradientUnits="userSpaceOnUse">
<stop stop-color="#FE512E"/>
<stop offset="1" stop-color="#F09619"/>
</linearGradient>
<linearGradient id="paint21_linear_1469_124866" x1="81.4961" y1="532" x2="1383.81" y2="532" gradientUnits="userSpaceOnUse">
<stop stop-color="#FE512E"/>
<stop offset="1" stop-color="#F09619"/>
</linearGradient>
<linearGradient id="paint22_linear_1469_124866" x1="71.8555" y1="532" x2="1374.55" y2="532" gradientUnits="userSpaceOnUse">
<stop stop-color="#FE512E"/>
<stop offset="1" stop-color="#F09619"/>
</linearGradient>
<linearGradient id="paint23_linear_1469_124866" x1="62.0625" y1="532" x2="1359.73" y2="532" gradientUnits="userSpaceOnUse">
<stop stop-color="#FE512E"/>
<stop offset="1" stop-color="#F09619"/>
</linearGradient>
<linearGradient id="paint24_linear_1469_124866" x1="52.0508" y1="532" x2="1338.97" y2="532" gradientUnits="userSpaceOnUse">
<stop stop-color="#FE512E"/>
<stop offset="1" stop-color="#F09619"/>
</linearGradient>
<linearGradient id="paint25_linear_1469_124866" x1="41.8984" y1="532" x2="1313.58" y2="532" gradientUnits="userSpaceOnUse">
<stop stop-color="#FE512E"/>
<stop offset="1" stop-color="#F09619"/>
</linearGradient>
<linearGradient id="paint26_linear_1469_124866" x1="31.6211" y1="532" x2="1284.57" y2="532" gradientUnits="userSpaceOnUse">
<stop stop-color="#FE512E"/>
<stop offset="1" stop-color="#F09619"/>
</linearGradient>
<linearGradient id="paint27_linear_1469_124866" x1="21.1797" y1="532" x2="1251.62" y2="532" gradientUnits="userSpaceOnUse">
<stop stop-color="#FE512E"/>
<stop offset="1" stop-color="#F09619"/>
</linearGradient>
<linearGradient id="paint28_linear_1469_124866" x1="10.6445" y1="532" x2="1216.19" y2="532" gradientUnits="userSpaceOnUse">
<stop stop-color="#FE512E"/>
<stop offset="1" stop-color="#F09619"/>
</linearGradient>
<linearGradient id="paint29_linear_1469_124866" x1="2.19499e-06" y1="532" x2="1178.42" y2="532" gradientUnits="userSpaceOnUse">
<stop stop-color="#FE512E"/>
<stop offset="1" stop-color="#F09619"/>
</linearGradient>
</defs>
</svg>
